<mxfile host="app.diagrams.net" agent="Mozilla/5.0 (Windows NT 10.0; Win64; x64) AppleWebKit/537.36 (KHTML, like Gecko) Chrome/133.0.0.0 Safari/537.36" version="26.0.16">
  <diagram name="Page-1" id="YihKE9L7HjIjKjPsf9bq">
    <mxGraphModel dx="1725" dy="503" grid="1" gridSize="1" guides="1" tooltips="1" connect="1" arrows="1" fold="1" page="1" pageScale="1" pageWidth="850" pageHeight="1100" math="0" shadow="0">
      <root>
        <mxCell id="0" />
        <mxCell id="1" parent="0" />
        <mxCell id="Jp11gVg7JKC-Gpw7KqHW-248" style="edgeStyle=orthogonalEdgeStyle;rounded=0;orthogonalLoop=1;jettySize=auto;html=1;exitX=0.5;exitY=1;exitDx=0;exitDy=0;" edge="1" parent="1" source="Jp11gVg7JKC-Gpw7KqHW-1">
          <mxGeometry relative="1" as="geometry">
            <mxPoint x="150" y="370" as="targetPoint" />
          </mxGeometry>
        </mxCell>
        <mxCell id="Jp11gVg7JKC-Gpw7KqHW-1" value="" style="shape=offPageConnector;whiteSpace=wrap;html=1;direction=north;" vertex="1" parent="1">
          <mxGeometry x="40" y="350" width="40" height="20" as="geometry" />
        </mxCell>
        <mxCell id="Jp11gVg7JKC-Gpw7KqHW-246" style="edgeStyle=orthogonalEdgeStyle;rounded=0;orthogonalLoop=1;jettySize=auto;html=1;exitX=0.5;exitY=1;exitDx=0;exitDy=0;" edge="1" parent="1" source="Jp11gVg7JKC-Gpw7KqHW-5">
          <mxGeometry relative="1" as="geometry">
            <mxPoint x="140" y="320.1428571428571" as="targetPoint" />
          </mxGeometry>
        </mxCell>
        <mxCell id="Jp11gVg7JKC-Gpw7KqHW-5" value="" style="shape=offPageConnector;whiteSpace=wrap;html=1;direction=north;" vertex="1" parent="1">
          <mxGeometry x="40" y="310" width="40" height="20" as="geometry" />
        </mxCell>
        <mxCell id="Jp11gVg7JKC-Gpw7KqHW-245" style="edgeStyle=orthogonalEdgeStyle;rounded=0;orthogonalLoop=1;jettySize=auto;html=1;exitX=0.5;exitY=1;exitDx=0;exitDy=0;" edge="1" parent="1" source="Jp11gVg7JKC-Gpw7KqHW-6">
          <mxGeometry relative="1" as="geometry">
            <mxPoint x="130" y="280.1428571428571" as="targetPoint" />
          </mxGeometry>
        </mxCell>
        <mxCell id="Jp11gVg7JKC-Gpw7KqHW-6" value="" style="shape=offPageConnector;whiteSpace=wrap;html=1;direction=north;" vertex="1" parent="1">
          <mxGeometry x="40" y="270" width="40" height="20" as="geometry" />
        </mxCell>
        <mxCell id="Jp11gVg7JKC-Gpw7KqHW-244" style="edgeStyle=orthogonalEdgeStyle;rounded=0;orthogonalLoop=1;jettySize=auto;html=1;exitX=0.5;exitY=1;exitDx=0;exitDy=0;" edge="1" parent="1" source="Jp11gVg7JKC-Gpw7KqHW-7">
          <mxGeometry relative="1" as="geometry">
            <mxPoint x="120" y="240.1428571428571" as="targetPoint" />
          </mxGeometry>
        </mxCell>
        <mxCell id="Jp11gVg7JKC-Gpw7KqHW-7" value="" style="shape=offPageConnector;whiteSpace=wrap;html=1;direction=north;" vertex="1" parent="1">
          <mxGeometry x="40" y="230" width="40" height="20" as="geometry" />
        </mxCell>
        <mxCell id="Jp11gVg7JKC-Gpw7KqHW-11" value="" style="shape=or;whiteSpace=wrap;html=1;" vertex="1" parent="1">
          <mxGeometry x="200" y="40" width="40" height="40" as="geometry" />
        </mxCell>
        <mxCell id="Jp11gVg7JKC-Gpw7KqHW-15" value="num[3]" style="text;html=1;align=center;verticalAlign=middle;whiteSpace=wrap;rounded=0;" vertex="1" parent="1">
          <mxGeometry x="-20" y="230" width="60" height="20" as="geometry" />
        </mxCell>
        <mxCell id="Jp11gVg7JKC-Gpw7KqHW-17" value="num[2]" style="text;html=1;align=center;verticalAlign=middle;whiteSpace=wrap;rounded=0;" vertex="1" parent="1">
          <mxGeometry x="-20" y="270" width="60" height="20" as="geometry" />
        </mxCell>
        <mxCell id="Jp11gVg7JKC-Gpw7KqHW-18" value="num[1]" style="text;html=1;align=center;verticalAlign=middle;whiteSpace=wrap;rounded=0;" vertex="1" parent="1">
          <mxGeometry x="-20" y="310" width="60" height="20" as="geometry" />
        </mxCell>
        <mxCell id="Jp11gVg7JKC-Gpw7KqHW-19" value="num[0]" style="text;html=1;align=center;verticalAlign=middle;whiteSpace=wrap;rounded=0;" vertex="1" parent="1">
          <mxGeometry x="-20" y="350" width="60" height="20" as="geometry" />
        </mxCell>
        <mxCell id="Jp11gVg7JKC-Gpw7KqHW-39" value="" style="endArrow=none;html=1;rounded=0;" edge="1" parent="1">
          <mxGeometry width="50" height="50" relative="1" as="geometry">
            <mxPoint x="120" y="640" as="sourcePoint" />
            <mxPoint x="120" y="40" as="targetPoint" />
          </mxGeometry>
        </mxCell>
        <mxCell id="Jp11gVg7JKC-Gpw7KqHW-40" value="" style="endArrow=none;html=1;rounded=0;" edge="1" parent="1">
          <mxGeometry width="50" height="50" relative="1" as="geometry">
            <mxPoint x="130" y="650" as="sourcePoint" />
            <mxPoint x="130" y="50" as="targetPoint" />
          </mxGeometry>
        </mxCell>
        <mxCell id="Jp11gVg7JKC-Gpw7KqHW-41" value="" style="endArrow=none;html=1;rounded=0;" edge="1" parent="1">
          <mxGeometry width="50" height="50" relative="1" as="geometry">
            <mxPoint x="140" y="660" as="sourcePoint" />
            <mxPoint x="140" y="60" as="targetPoint" />
          </mxGeometry>
        </mxCell>
        <mxCell id="Jp11gVg7JKC-Gpw7KqHW-42" value="" style="endArrow=none;html=1;rounded=0;" edge="1" parent="1">
          <mxGeometry width="50" height="50" relative="1" as="geometry">
            <mxPoint x="150" y="670" as="sourcePoint" />
            <mxPoint x="150" y="70" as="targetPoint" />
          </mxGeometry>
        </mxCell>
        <mxCell id="Jp11gVg7JKC-Gpw7KqHW-47" value="" style="shape=or;whiteSpace=wrap;html=1;" vertex="1" parent="1">
          <mxGeometry x="200" y="190" width="40" height="40" as="geometry" />
        </mxCell>
        <mxCell id="Jp11gVg7JKC-Gpw7KqHW-48" value="" style="shape=or;whiteSpace=wrap;html=1;" vertex="1" parent="1">
          <mxGeometry x="200" y="90" width="40" height="40" as="geometry" />
        </mxCell>
        <mxCell id="Jp11gVg7JKC-Gpw7KqHW-49" value="" style="shape=or;whiteSpace=wrap;html=1;" vertex="1" parent="1">
          <mxGeometry x="200" y="140" width="40" height="40" as="geometry" />
        </mxCell>
        <mxCell id="Jp11gVg7JKC-Gpw7KqHW-50" value="" style="endArrow=none;html=1;rounded=0;entryX=-0.01;entryY=0.011;entryDx=0;entryDy=0;entryPerimeter=0;" edge="1" parent="1" source="Jp11gVg7JKC-Gpw7KqHW-334" target="Jp11gVg7JKC-Gpw7KqHW-11">
          <mxGeometry width="50" height="50" relative="1" as="geometry">
            <mxPoint x="120" y="40" as="sourcePoint" />
            <mxPoint x="170" y="-10" as="targetPoint" />
          </mxGeometry>
        </mxCell>
        <mxCell id="Jp11gVg7JKC-Gpw7KqHW-51" value="" style="endArrow=none;html=1;rounded=0;" edge="1" parent="1" source="Jp11gVg7JKC-Gpw7KqHW-337">
          <mxGeometry width="50" height="50" relative="1" as="geometry">
            <mxPoint x="130" y="50" as="sourcePoint" />
            <mxPoint x="200" y="50" as="targetPoint" />
          </mxGeometry>
        </mxCell>
        <mxCell id="Jp11gVg7JKC-Gpw7KqHW-53" value="" style="endArrow=none;html=1;rounded=0;" edge="1" parent="1" source="Jp11gVg7JKC-Gpw7KqHW-336">
          <mxGeometry width="50" height="50" relative="1" as="geometry">
            <mxPoint x="140" y="60" as="sourcePoint" />
            <mxPoint x="200" y="60" as="targetPoint" />
          </mxGeometry>
        </mxCell>
        <mxCell id="Jp11gVg7JKC-Gpw7KqHW-54" value="" style="endArrow=none;html=1;rounded=0;" edge="1" parent="1">
          <mxGeometry width="50" height="50" relative="1" as="geometry">
            <mxPoint x="150" y="170" as="sourcePoint" />
            <mxPoint x="200" y="170" as="targetPoint" />
          </mxGeometry>
        </mxCell>
        <mxCell id="Jp11gVg7JKC-Gpw7KqHW-55" value="" style="endArrow=none;html=1;rounded=0;entryX=-0.01;entryY=0.011;entryDx=0;entryDy=0;entryPerimeter=0;" edge="1" parent="1" source="Jp11gVg7JKC-Gpw7KqHW-342">
          <mxGeometry width="50" height="50" relative="1" as="geometry">
            <mxPoint x="120" y="90" as="sourcePoint" />
            <mxPoint x="200" y="90" as="targetPoint" />
          </mxGeometry>
        </mxCell>
        <mxCell id="Jp11gVg7JKC-Gpw7KqHW-56" value="" style="endArrow=none;html=1;rounded=0;entryX=-0.01;entryY=0.011;entryDx=0;entryDy=0;entryPerimeter=0;" edge="1" parent="1">
          <mxGeometry width="50" height="50" relative="1" as="geometry">
            <mxPoint x="120" y="140" as="sourcePoint" />
            <mxPoint x="200" y="140" as="targetPoint" />
          </mxGeometry>
        </mxCell>
        <mxCell id="Jp11gVg7JKC-Gpw7KqHW-57" value="" style="endArrow=none;html=1;rounded=0;entryX=-0.01;entryY=0.011;entryDx=0;entryDy=0;entryPerimeter=0;" edge="1" parent="1">
          <mxGeometry width="50" height="50" relative="1" as="geometry">
            <mxPoint x="120" y="190" as="sourcePoint" />
            <mxPoint x="200" y="190" as="targetPoint" />
          </mxGeometry>
        </mxCell>
        <mxCell id="Jp11gVg7JKC-Gpw7KqHW-58" value="" style="endArrow=none;html=1;rounded=0;" edge="1" parent="1">
          <mxGeometry width="50" height="50" relative="1" as="geometry">
            <mxPoint x="130" y="100" as="sourcePoint" />
            <mxPoint x="200" y="100" as="targetPoint" />
          </mxGeometry>
        </mxCell>
        <mxCell id="Jp11gVg7JKC-Gpw7KqHW-59" value="" style="endArrow=none;html=1;rounded=0;" edge="1" parent="1">
          <mxGeometry width="50" height="50" relative="1" as="geometry">
            <mxPoint x="130" y="150" as="sourcePoint" />
            <mxPoint x="200" y="150" as="targetPoint" />
          </mxGeometry>
        </mxCell>
        <mxCell id="Jp11gVg7JKC-Gpw7KqHW-60" value="" style="endArrow=none;html=1;rounded=0;" edge="1" parent="1" source="Jp11gVg7JKC-Gpw7KqHW-349">
          <mxGeometry width="50" height="50" relative="1" as="geometry">
            <mxPoint x="130" y="200" as="sourcePoint" />
            <mxPoint x="200" y="200" as="targetPoint" />
          </mxGeometry>
        </mxCell>
        <mxCell id="Jp11gVg7JKC-Gpw7KqHW-61" value="" style="endArrow=none;html=1;rounded=0;" edge="1" parent="1" source="Jp11gVg7JKC-Gpw7KqHW-341">
          <mxGeometry width="50" height="50" relative="1" as="geometry">
            <mxPoint x="140" y="109.82" as="sourcePoint" />
            <mxPoint x="200" y="109.82" as="targetPoint" />
          </mxGeometry>
        </mxCell>
        <mxCell id="Jp11gVg7JKC-Gpw7KqHW-62" value="" style="endArrow=none;html=1;rounded=0;" edge="1" parent="1" source="Jp11gVg7JKC-Gpw7KqHW-347">
          <mxGeometry width="50" height="50" relative="1" as="geometry">
            <mxPoint x="140" y="159.82" as="sourcePoint" />
            <mxPoint x="200" y="159.82" as="targetPoint" />
          </mxGeometry>
        </mxCell>
        <mxCell id="Jp11gVg7JKC-Gpw7KqHW-63" value="" style="endArrow=none;html=1;rounded=0;" edge="1" parent="1">
          <mxGeometry width="50" height="50" relative="1" as="geometry">
            <mxPoint x="140" y="209.82" as="sourcePoint" />
            <mxPoint x="200" y="209.82" as="targetPoint" />
          </mxGeometry>
        </mxCell>
        <mxCell id="Jp11gVg7JKC-Gpw7KqHW-64" value="" style="endArrow=none;html=1;rounded=0;" edge="1" parent="1" source="Jp11gVg7JKC-Gpw7KqHW-340">
          <mxGeometry width="50" height="50" relative="1" as="geometry">
            <mxPoint x="150" y="120" as="sourcePoint" />
            <mxPoint x="200" y="120" as="targetPoint" />
          </mxGeometry>
        </mxCell>
        <mxCell id="Jp11gVg7JKC-Gpw7KqHW-65" value="" style="endArrow=none;html=1;rounded=0;" edge="1" parent="1">
          <mxGeometry width="50" height="50" relative="1" as="geometry">
            <mxPoint x="150" y="70" as="sourcePoint" />
            <mxPoint x="200" y="70" as="targetPoint" />
          </mxGeometry>
        </mxCell>
        <mxCell id="Jp11gVg7JKC-Gpw7KqHW-66" value="" style="endArrow=none;html=1;rounded=0;" edge="1" parent="1">
          <mxGeometry width="50" height="50" relative="1" as="geometry">
            <mxPoint x="150" y="220" as="sourcePoint" />
            <mxPoint x="200" y="220" as="targetPoint" />
          </mxGeometry>
        </mxCell>
        <mxCell id="Jp11gVg7JKC-Gpw7KqHW-296" style="edgeStyle=orthogonalEdgeStyle;rounded=0;orthogonalLoop=1;jettySize=auto;html=1;exitX=1;exitY=0.5;exitDx=0;exitDy=0;exitPerimeter=0;entryX=0.5;entryY=1;entryDx=0;entryDy=0;" edge="1" parent="1" source="Jp11gVg7JKC-Gpw7KqHW-67" target="Jp11gVg7JKC-Gpw7KqHW-285">
          <mxGeometry relative="1" as="geometry" />
        </mxCell>
        <mxCell id="Jp11gVg7JKC-Gpw7KqHW-67" value="" style="shape=xor;whiteSpace=wrap;html=1;" vertex="1" parent="1">
          <mxGeometry x="280" y="90" width="60" height="90" as="geometry" />
        </mxCell>
        <mxCell id="Jp11gVg7JKC-Gpw7KqHW-68" value="" style="shape=or;whiteSpace=wrap;html=1;" vertex="1" parent="1">
          <mxGeometry x="200" y="240" width="40" height="40" as="geometry" />
        </mxCell>
        <mxCell id="Jp11gVg7JKC-Gpw7KqHW-69" value="" style="shape=or;whiteSpace=wrap;html=1;" vertex="1" parent="1">
          <mxGeometry x="200" y="390" width="40" height="40" as="geometry" />
        </mxCell>
        <mxCell id="Jp11gVg7JKC-Gpw7KqHW-70" value="" style="shape=or;whiteSpace=wrap;html=1;" vertex="1" parent="1">
          <mxGeometry x="200" y="290" width="40" height="40" as="geometry" />
        </mxCell>
        <mxCell id="Jp11gVg7JKC-Gpw7KqHW-71" value="" style="shape=or;whiteSpace=wrap;html=1;" vertex="1" parent="1">
          <mxGeometry x="200" y="340" width="40" height="40" as="geometry" />
        </mxCell>
        <mxCell id="Jp11gVg7JKC-Gpw7KqHW-72" value="" style="endArrow=none;html=1;rounded=0;entryX=-0.01;entryY=0.011;entryDx=0;entryDy=0;entryPerimeter=0;" edge="1" parent="1" target="Jp11gVg7JKC-Gpw7KqHW-68">
          <mxGeometry width="50" height="50" relative="1" as="geometry">
            <mxPoint x="120" y="240" as="sourcePoint" />
            <mxPoint x="170" y="190" as="targetPoint" />
          </mxGeometry>
        </mxCell>
        <mxCell id="Jp11gVg7JKC-Gpw7KqHW-73" value="" style="endArrow=none;html=1;rounded=0;" edge="1" parent="1">
          <mxGeometry width="50" height="50" relative="1" as="geometry">
            <mxPoint x="130" y="250" as="sourcePoint" />
            <mxPoint x="200" y="250" as="targetPoint" />
          </mxGeometry>
        </mxCell>
        <mxCell id="Jp11gVg7JKC-Gpw7KqHW-74" value="" style="endArrow=none;html=1;rounded=0;" edge="1" parent="1" source="Jp11gVg7JKC-Gpw7KqHW-351">
          <mxGeometry width="50" height="50" relative="1" as="geometry">
            <mxPoint x="140" y="260" as="sourcePoint" />
            <mxPoint x="200" y="260" as="targetPoint" />
          </mxGeometry>
        </mxCell>
        <mxCell id="Jp11gVg7JKC-Gpw7KqHW-75" value="" style="endArrow=none;html=1;rounded=0;" edge="1" parent="1" source="Jp11gVg7JKC-Gpw7KqHW-353">
          <mxGeometry width="50" height="50" relative="1" as="geometry">
            <mxPoint x="150" y="370" as="sourcePoint" />
            <mxPoint x="200" y="370" as="targetPoint" />
          </mxGeometry>
        </mxCell>
        <mxCell id="Jp11gVg7JKC-Gpw7KqHW-76" value="" style="endArrow=none;html=1;rounded=0;entryX=-0.01;entryY=0.011;entryDx=0;entryDy=0;entryPerimeter=0;" edge="1" parent="1">
          <mxGeometry width="50" height="50" relative="1" as="geometry">
            <mxPoint x="120" y="290" as="sourcePoint" />
            <mxPoint x="200" y="290" as="targetPoint" />
          </mxGeometry>
        </mxCell>
        <mxCell id="Jp11gVg7JKC-Gpw7KqHW-77" value="" style="endArrow=none;html=1;rounded=0;entryX=-0.01;entryY=0.011;entryDx=0;entryDy=0;entryPerimeter=0;" edge="1" parent="1">
          <mxGeometry width="50" height="50" relative="1" as="geometry">
            <mxPoint x="120" y="340" as="sourcePoint" />
            <mxPoint x="200" y="340" as="targetPoint" />
          </mxGeometry>
        </mxCell>
        <mxCell id="Jp11gVg7JKC-Gpw7KqHW-78" value="" style="endArrow=none;html=1;rounded=0;entryX=-0.01;entryY=0.011;entryDx=0;entryDy=0;entryPerimeter=0;" edge="1" parent="1" source="Jp11gVg7JKC-Gpw7KqHW-356">
          <mxGeometry width="50" height="50" relative="1" as="geometry">
            <mxPoint x="120" y="390" as="sourcePoint" />
            <mxPoint x="200" y="390" as="targetPoint" />
          </mxGeometry>
        </mxCell>
        <mxCell id="Jp11gVg7JKC-Gpw7KqHW-80" value="" style="endArrow=none;html=1;rounded=0;" edge="1" parent="1">
          <mxGeometry width="50" height="50" relative="1" as="geometry">
            <mxPoint x="130" y="350" as="sourcePoint" />
            <mxPoint x="200" y="350" as="targetPoint" />
          </mxGeometry>
        </mxCell>
        <mxCell id="Jp11gVg7JKC-Gpw7KqHW-81" value="" style="endArrow=none;html=1;rounded=0;" edge="1" parent="1">
          <mxGeometry width="50" height="50" relative="1" as="geometry">
            <mxPoint x="130" y="400" as="sourcePoint" />
            <mxPoint x="200" y="400" as="targetPoint" />
          </mxGeometry>
        </mxCell>
        <mxCell id="Jp11gVg7JKC-Gpw7KqHW-82" value="" style="endArrow=none;html=1;rounded=0;" edge="1" parent="1">
          <mxGeometry width="50" height="50" relative="1" as="geometry">
            <mxPoint x="140" y="309.82" as="sourcePoint" />
            <mxPoint x="200" y="309.82" as="targetPoint" />
          </mxGeometry>
        </mxCell>
        <mxCell id="Jp11gVg7JKC-Gpw7KqHW-84" value="" style="endArrow=none;html=1;rounded=0;" edge="1" parent="1">
          <mxGeometry width="50" height="50" relative="1" as="geometry">
            <mxPoint x="140" y="409.82" as="sourcePoint" />
            <mxPoint x="200" y="409.82" as="targetPoint" />
          </mxGeometry>
        </mxCell>
        <mxCell id="Jp11gVg7JKC-Gpw7KqHW-85" value="" style="endArrow=none;html=1;rounded=0;" edge="1" parent="1">
          <mxGeometry width="50" height="50" relative="1" as="geometry">
            <mxPoint x="150" y="320" as="sourcePoint" />
            <mxPoint x="200" y="320" as="targetPoint" />
          </mxGeometry>
        </mxCell>
        <mxCell id="Jp11gVg7JKC-Gpw7KqHW-87" value="" style="endArrow=none;html=1;rounded=0;" edge="1" parent="1" source="Jp11gVg7JKC-Gpw7KqHW-355">
          <mxGeometry width="50" height="50" relative="1" as="geometry">
            <mxPoint x="150" y="420" as="sourcePoint" />
            <mxPoint x="200" y="420" as="targetPoint" />
          </mxGeometry>
        </mxCell>
        <mxCell id="Jp11gVg7JKC-Gpw7KqHW-298" style="edgeStyle=orthogonalEdgeStyle;rounded=0;orthogonalLoop=1;jettySize=auto;html=1;exitX=1;exitY=0.5;exitDx=0;exitDy=0;exitPerimeter=0;entryX=0.5;entryY=1;entryDx=0;entryDy=0;" edge="1" parent="1" source="Jp11gVg7JKC-Gpw7KqHW-88" target="Jp11gVg7JKC-Gpw7KqHW-292">
          <mxGeometry relative="1" as="geometry" />
        </mxCell>
        <mxCell id="Jp11gVg7JKC-Gpw7KqHW-88" value="" style="shape=xor;whiteSpace=wrap;html=1;" vertex="1" parent="1">
          <mxGeometry x="280" y="290" width="60" height="90" as="geometry" />
        </mxCell>
        <mxCell id="Jp11gVg7JKC-Gpw7KqHW-89" value="" style="shape=or;whiteSpace=wrap;html=1;" vertex="1" parent="1">
          <mxGeometry x="200" y="440" width="40" height="40" as="geometry" />
        </mxCell>
        <mxCell id="Jp11gVg7JKC-Gpw7KqHW-90" value="" style="shape=or;whiteSpace=wrap;html=1;" vertex="1" parent="1">
          <mxGeometry x="200" y="590" width="40" height="40" as="geometry" />
        </mxCell>
        <mxCell id="Jp11gVg7JKC-Gpw7KqHW-91" value="" style="shape=or;whiteSpace=wrap;html=1;" vertex="1" parent="1">
          <mxGeometry x="200" y="515" width="40" height="40" as="geometry" />
        </mxCell>
        <mxCell id="Jp11gVg7JKC-Gpw7KqHW-93" value="" style="endArrow=none;html=1;rounded=0;entryX=-0.01;entryY=0.011;entryDx=0;entryDy=0;entryPerimeter=0;" edge="1" parent="1" target="Jp11gVg7JKC-Gpw7KqHW-89">
          <mxGeometry width="50" height="50" relative="1" as="geometry">
            <mxPoint x="120" y="440" as="sourcePoint" />
            <mxPoint x="170" y="390" as="targetPoint" />
          </mxGeometry>
        </mxCell>
        <mxCell id="Jp11gVg7JKC-Gpw7KqHW-94" value="" style="endArrow=none;html=1;rounded=0;" edge="1" parent="1">
          <mxGeometry width="50" height="50" relative="1" as="geometry">
            <mxPoint x="130" y="450" as="sourcePoint" />
            <mxPoint x="200" y="450" as="targetPoint" />
          </mxGeometry>
        </mxCell>
        <mxCell id="Jp11gVg7JKC-Gpw7KqHW-97" value="" style="endArrow=none;html=1;rounded=0;entryX=-0.01;entryY=0.011;entryDx=0;entryDy=0;entryPerimeter=0;" edge="1" parent="1" source="Jp11gVg7JKC-Gpw7KqHW-363">
          <mxGeometry width="50" height="50" relative="1" as="geometry">
            <mxPoint x="120" y="515" as="sourcePoint" />
            <mxPoint x="200" y="515" as="targetPoint" />
          </mxGeometry>
        </mxCell>
        <mxCell id="Jp11gVg7JKC-Gpw7KqHW-99" value="" style="endArrow=none;html=1;rounded=0;entryX=-0.01;entryY=0.011;entryDx=0;entryDy=0;entryPerimeter=0;" edge="1" parent="1">
          <mxGeometry width="50" height="50" relative="1" as="geometry">
            <mxPoint x="120" y="590" as="sourcePoint" />
            <mxPoint x="200" y="590" as="targetPoint" />
          </mxGeometry>
        </mxCell>
        <mxCell id="Jp11gVg7JKC-Gpw7KqHW-100" value="" style="endArrow=none;html=1;rounded=0;" edge="1" parent="1" source="Jp11gVg7JKC-Gpw7KqHW-362">
          <mxGeometry width="50" height="50" relative="1" as="geometry">
            <mxPoint x="130" y="525" as="sourcePoint" />
            <mxPoint x="200" y="525" as="targetPoint" />
          </mxGeometry>
        </mxCell>
        <mxCell id="Jp11gVg7JKC-Gpw7KqHW-102" value="" style="endArrow=none;html=1;rounded=0;" edge="1" parent="1">
          <mxGeometry width="50" height="50" relative="1" as="geometry">
            <mxPoint x="130" y="600" as="sourcePoint" />
            <mxPoint x="200" y="600" as="targetPoint" />
          </mxGeometry>
        </mxCell>
        <mxCell id="Jp11gVg7JKC-Gpw7KqHW-103" value="" style="endArrow=none;html=1;rounded=0;" edge="1" parent="1">
          <mxGeometry width="50" height="50" relative="1" as="geometry">
            <mxPoint x="140" y="534.8199999999999" as="sourcePoint" />
            <mxPoint x="200" y="534.8199999999999" as="targetPoint" />
          </mxGeometry>
        </mxCell>
        <mxCell id="Jp11gVg7JKC-Gpw7KqHW-105" value="" style="endArrow=none;html=1;rounded=0;" edge="1" parent="1">
          <mxGeometry width="50" height="50" relative="1" as="geometry">
            <mxPoint x="140" y="609.8199999999999" as="sourcePoint" />
            <mxPoint x="200" y="609.8199999999999" as="targetPoint" />
          </mxGeometry>
        </mxCell>
        <mxCell id="Jp11gVg7JKC-Gpw7KqHW-106" value="" style="endArrow=none;html=1;rounded=0;" edge="1" parent="1" source="Jp11gVg7JKC-Gpw7KqHW-361">
          <mxGeometry width="50" height="50" relative="1" as="geometry">
            <mxPoint x="150" y="545" as="sourcePoint" />
            <mxPoint x="200" y="545" as="targetPoint" />
          </mxGeometry>
        </mxCell>
        <mxCell id="Jp11gVg7JKC-Gpw7KqHW-107" value="" style="endArrow=none;html=1;rounded=0;" edge="1" parent="1" source="Jp11gVg7JKC-Gpw7KqHW-359">
          <mxGeometry width="50" height="50" relative="1" as="geometry">
            <mxPoint x="150" y="470" as="sourcePoint" />
            <mxPoint x="200" y="470" as="targetPoint" />
          </mxGeometry>
        </mxCell>
        <mxCell id="Jp11gVg7JKC-Gpw7KqHW-299" style="edgeStyle=orthogonalEdgeStyle;rounded=0;orthogonalLoop=1;jettySize=auto;html=1;exitX=1;exitY=0.5;exitDx=0;exitDy=0;exitPerimeter=0;entryX=0.5;entryY=1;entryDx=0;entryDy=0;" edge="1" parent="1" source="Jp11gVg7JKC-Gpw7KqHW-109" target="Jp11gVg7JKC-Gpw7KqHW-291">
          <mxGeometry relative="1" as="geometry" />
        </mxCell>
        <mxCell id="Jp11gVg7JKC-Gpw7KqHW-109" value="" style="shape=xor;whiteSpace=wrap;html=1;" vertex="1" parent="1">
          <mxGeometry x="280" y="490" width="60" height="90" as="geometry" />
        </mxCell>
        <mxCell id="Jp11gVg7JKC-Gpw7KqHW-110" value="" style="shape=or;whiteSpace=wrap;html=1;" vertex="1" parent="1">
          <mxGeometry x="480" y="40" width="40" height="40" as="geometry" />
        </mxCell>
        <mxCell id="Jp11gVg7JKC-Gpw7KqHW-111" value="" style="endArrow=none;html=1;rounded=0;" edge="1" parent="1">
          <mxGeometry width="50" height="50" relative="1" as="geometry">
            <mxPoint x="400" y="640" as="sourcePoint" />
            <mxPoint x="400" y="40" as="targetPoint" />
          </mxGeometry>
        </mxCell>
        <mxCell id="Jp11gVg7JKC-Gpw7KqHW-112" value="" style="endArrow=none;html=1;rounded=0;" edge="1" parent="1">
          <mxGeometry width="50" height="50" relative="1" as="geometry">
            <mxPoint x="410" y="650" as="sourcePoint" />
            <mxPoint x="410" y="50" as="targetPoint" />
          </mxGeometry>
        </mxCell>
        <mxCell id="Jp11gVg7JKC-Gpw7KqHW-113" value="" style="endArrow=none;html=1;rounded=0;" edge="1" parent="1">
          <mxGeometry width="50" height="50" relative="1" as="geometry">
            <mxPoint x="420" y="660" as="sourcePoint" />
            <mxPoint x="420" y="60" as="targetPoint" />
          </mxGeometry>
        </mxCell>
        <mxCell id="Jp11gVg7JKC-Gpw7KqHW-114" value="" style="endArrow=none;html=1;rounded=0;" edge="1" parent="1">
          <mxGeometry width="50" height="50" relative="1" as="geometry">
            <mxPoint x="430" y="670" as="sourcePoint" />
            <mxPoint x="430" y="70" as="targetPoint" />
          </mxGeometry>
        </mxCell>
        <mxCell id="Jp11gVg7JKC-Gpw7KqHW-115" value="" style="shape=or;whiteSpace=wrap;html=1;" vertex="1" parent="1">
          <mxGeometry x="480" y="190" width="40" height="40" as="geometry" />
        </mxCell>
        <mxCell id="Jp11gVg7JKC-Gpw7KqHW-116" value="" style="shape=or;whiteSpace=wrap;html=1;" vertex="1" parent="1">
          <mxGeometry x="480" y="90" width="40" height="40" as="geometry" />
        </mxCell>
        <mxCell id="Jp11gVg7JKC-Gpw7KqHW-117" value="" style="shape=or;whiteSpace=wrap;html=1;" vertex="1" parent="1">
          <mxGeometry x="480" y="140" width="40" height="40" as="geometry" />
        </mxCell>
        <mxCell id="Jp11gVg7JKC-Gpw7KqHW-118" value="" style="endArrow=none;html=1;rounded=0;entryX=-0.01;entryY=0.011;entryDx=0;entryDy=0;entryPerimeter=0;" edge="1" parent="1" target="Jp11gVg7JKC-Gpw7KqHW-110" source="Jp11gVg7JKC-Gpw7KqHW-370">
          <mxGeometry width="50" height="50" relative="1" as="geometry">
            <mxPoint x="400" y="40" as="sourcePoint" />
            <mxPoint x="450" y="-10" as="targetPoint" />
          </mxGeometry>
        </mxCell>
        <mxCell id="Jp11gVg7JKC-Gpw7KqHW-119" value="" style="endArrow=none;html=1;rounded=0;" edge="1" parent="1" source="Jp11gVg7JKC-Gpw7KqHW-369">
          <mxGeometry width="50" height="50" relative="1" as="geometry">
            <mxPoint x="410" y="50" as="sourcePoint" />
            <mxPoint x="480" y="50" as="targetPoint" />
          </mxGeometry>
        </mxCell>
        <mxCell id="Jp11gVg7JKC-Gpw7KqHW-120" value="" style="endArrow=none;html=1;rounded=0;" edge="1" parent="1" source="Jp11gVg7JKC-Gpw7KqHW-368">
          <mxGeometry width="50" height="50" relative="1" as="geometry">
            <mxPoint x="420" y="60" as="sourcePoint" />
            <mxPoint x="480" y="60" as="targetPoint" />
          </mxGeometry>
        </mxCell>
        <mxCell id="Jp11gVg7JKC-Gpw7KqHW-121" value="" style="endArrow=none;html=1;rounded=0;" edge="1" parent="1">
          <mxGeometry width="50" height="50" relative="1" as="geometry">
            <mxPoint x="430" y="170" as="sourcePoint" />
            <mxPoint x="480" y="170" as="targetPoint" />
          </mxGeometry>
        </mxCell>
        <mxCell id="Jp11gVg7JKC-Gpw7KqHW-122" value="" style="endArrow=none;html=1;rounded=0;entryX=-0.01;entryY=0.011;entryDx=0;entryDy=0;entryPerimeter=0;" edge="1" parent="1" source="Jp11gVg7JKC-Gpw7KqHW-375">
          <mxGeometry width="50" height="50" relative="1" as="geometry">
            <mxPoint x="400" y="90" as="sourcePoint" />
            <mxPoint x="480" y="90" as="targetPoint" />
          </mxGeometry>
        </mxCell>
        <mxCell id="Jp11gVg7JKC-Gpw7KqHW-124" value="" style="endArrow=none;html=1;rounded=0;entryX=-0.01;entryY=0.011;entryDx=0;entryDy=0;entryPerimeter=0;" edge="1" parent="1">
          <mxGeometry width="50" height="50" relative="1" as="geometry">
            <mxPoint x="400" y="190" as="sourcePoint" />
            <mxPoint x="480" y="190" as="targetPoint" />
          </mxGeometry>
        </mxCell>
        <mxCell id="Jp11gVg7JKC-Gpw7KqHW-125" value="" style="endArrow=none;html=1;rounded=0;" edge="1" parent="1">
          <mxGeometry width="50" height="50" relative="1" as="geometry">
            <mxPoint x="410" y="100" as="sourcePoint" />
            <mxPoint x="480" y="100" as="targetPoint" />
          </mxGeometry>
        </mxCell>
        <mxCell id="Jp11gVg7JKC-Gpw7KqHW-126" value="" style="endArrow=none;html=1;rounded=0;" edge="1" parent="1">
          <mxGeometry width="50" height="50" relative="1" as="geometry">
            <mxPoint x="410" y="150" as="sourcePoint" />
            <mxPoint x="480" y="150" as="targetPoint" />
          </mxGeometry>
        </mxCell>
        <mxCell id="Jp11gVg7JKC-Gpw7KqHW-127" value="" style="endArrow=none;html=1;rounded=0;" edge="1" parent="1" source="Jp11gVg7JKC-Gpw7KqHW-380">
          <mxGeometry width="50" height="50" relative="1" as="geometry">
            <mxPoint x="410" y="200" as="sourcePoint" />
            <mxPoint x="480" y="200" as="targetPoint" />
          </mxGeometry>
        </mxCell>
        <mxCell id="Jp11gVg7JKC-Gpw7KqHW-128" value="" style="endArrow=none;html=1;rounded=0;" edge="1" parent="1" source="Jp11gVg7JKC-Gpw7KqHW-374">
          <mxGeometry width="50" height="50" relative="1" as="geometry">
            <mxPoint x="420" y="109.82" as="sourcePoint" />
            <mxPoint x="480" y="109.82" as="targetPoint" />
          </mxGeometry>
        </mxCell>
        <mxCell id="Jp11gVg7JKC-Gpw7KqHW-129" value="" style="endArrow=none;html=1;rounded=0;" edge="1" parent="1">
          <mxGeometry width="50" height="50" relative="1" as="geometry">
            <mxPoint x="420" y="159.82" as="sourcePoint" />
            <mxPoint x="480" y="159.82" as="targetPoint" />
          </mxGeometry>
        </mxCell>
        <mxCell id="Jp11gVg7JKC-Gpw7KqHW-130" value="" style="endArrow=none;html=1;rounded=0;" edge="1" parent="1">
          <mxGeometry width="50" height="50" relative="1" as="geometry">
            <mxPoint x="420" y="209.82" as="sourcePoint" />
            <mxPoint x="480" y="209.82" as="targetPoint" />
          </mxGeometry>
        </mxCell>
        <mxCell id="Jp11gVg7JKC-Gpw7KqHW-131" value="" style="endArrow=none;html=1;rounded=0;" edge="1" parent="1" source="Jp11gVg7JKC-Gpw7KqHW-367">
          <mxGeometry width="50" height="50" relative="1" as="geometry">
            <mxPoint x="430" y="120" as="sourcePoint" />
            <mxPoint x="480" y="120" as="targetPoint" />
          </mxGeometry>
        </mxCell>
        <mxCell id="Jp11gVg7JKC-Gpw7KqHW-132" value="" style="endArrow=none;html=1;rounded=0;" edge="1" parent="1">
          <mxGeometry width="50" height="50" relative="1" as="geometry">
            <mxPoint x="430" y="70" as="sourcePoint" />
            <mxPoint x="480" y="70" as="targetPoint" />
          </mxGeometry>
        </mxCell>
        <mxCell id="Jp11gVg7JKC-Gpw7KqHW-133" value="" style="endArrow=none;html=1;rounded=0;" edge="1" parent="1" source="Jp11gVg7JKC-Gpw7KqHW-379">
          <mxGeometry width="50" height="50" relative="1" as="geometry">
            <mxPoint x="430" y="220" as="sourcePoint" />
            <mxPoint x="480" y="220" as="targetPoint" />
          </mxGeometry>
        </mxCell>
        <mxCell id="Jp11gVg7JKC-Gpw7KqHW-300" style="edgeStyle=orthogonalEdgeStyle;rounded=0;orthogonalLoop=1;jettySize=auto;html=1;exitX=1;exitY=0.5;exitDx=0;exitDy=0;exitPerimeter=0;entryX=0.5;entryY=1;entryDx=0;entryDy=0;" edge="1" parent="1" source="Jp11gVg7JKC-Gpw7KqHW-134" target="Jp11gVg7JKC-Gpw7KqHW-290">
          <mxGeometry relative="1" as="geometry" />
        </mxCell>
        <mxCell id="Jp11gVg7JKC-Gpw7KqHW-134" value="" style="shape=xor;whiteSpace=wrap;html=1;" vertex="1" parent="1">
          <mxGeometry x="560" y="90" width="60" height="90" as="geometry" />
        </mxCell>
        <mxCell id="Jp11gVg7JKC-Gpw7KqHW-135" value="" style="shape=or;whiteSpace=wrap;html=1;" vertex="1" parent="1">
          <mxGeometry x="480" y="240" width="40" height="40" as="geometry" />
        </mxCell>
        <mxCell id="Jp11gVg7JKC-Gpw7KqHW-136" value="" style="shape=or;whiteSpace=wrap;html=1;" vertex="1" parent="1">
          <mxGeometry x="480" y="390" width="40" height="40" as="geometry" />
        </mxCell>
        <mxCell id="Jp11gVg7JKC-Gpw7KqHW-271" value="" style="edgeStyle=orthogonalEdgeStyle;rounded=0;orthogonalLoop=1;jettySize=auto;html=1;entryX=0.25;entryY=0.5;entryDx=0;entryDy=0;entryPerimeter=0;" edge="1" parent="1" source="Jp11gVg7JKC-Gpw7KqHW-137" target="Jp11gVg7JKC-Gpw7KqHW-155">
          <mxGeometry relative="1" as="geometry" />
        </mxCell>
        <mxCell id="Jp11gVg7JKC-Gpw7KqHW-137" value="" style="shape=or;whiteSpace=wrap;html=1;" vertex="1" parent="1">
          <mxGeometry x="480" y="315" width="40" height="40" as="geometry" />
        </mxCell>
        <mxCell id="Jp11gVg7JKC-Gpw7KqHW-139" value="" style="endArrow=none;html=1;rounded=0;entryX=-0.01;entryY=0.011;entryDx=0;entryDy=0;entryPerimeter=0;" edge="1" parent="1" target="Jp11gVg7JKC-Gpw7KqHW-135" source="Jp11gVg7JKC-Gpw7KqHW-389">
          <mxGeometry width="50" height="50" relative="1" as="geometry">
            <mxPoint x="400" y="240" as="sourcePoint" />
            <mxPoint x="450" y="190" as="targetPoint" />
          </mxGeometry>
        </mxCell>
        <mxCell id="Jp11gVg7JKC-Gpw7KqHW-145" value="" style="endArrow=none;html=1;rounded=0;entryX=-0.01;entryY=0.011;entryDx=0;entryDy=0;entryPerimeter=0;" edge="1" parent="1" source="Jp11gVg7JKC-Gpw7KqHW-395">
          <mxGeometry width="50" height="50" relative="1" as="geometry">
            <mxPoint x="400" y="390" as="sourcePoint" />
            <mxPoint x="480" y="390" as="targetPoint" />
          </mxGeometry>
        </mxCell>
        <mxCell id="Jp11gVg7JKC-Gpw7KqHW-146" value="" style="endArrow=none;html=1;rounded=0;" edge="1" parent="1" source="Jp11gVg7JKC-Gpw7KqHW-392">
          <mxGeometry width="50" height="50" relative="1" as="geometry">
            <mxPoint x="410" y="325" as="sourcePoint" />
            <mxPoint x="480" y="325" as="targetPoint" />
          </mxGeometry>
        </mxCell>
        <mxCell id="Jp11gVg7JKC-Gpw7KqHW-148" value="" style="endArrow=none;html=1;rounded=0;" edge="1" parent="1">
          <mxGeometry width="50" height="50" relative="1" as="geometry">
            <mxPoint x="410" y="400" as="sourcePoint" />
            <mxPoint x="480" y="400" as="targetPoint" />
          </mxGeometry>
        </mxCell>
        <mxCell id="Jp11gVg7JKC-Gpw7KqHW-149" value="" style="endArrow=none;html=1;rounded=0;" edge="1" parent="1" source="Jp11gVg7JKC-Gpw7KqHW-391">
          <mxGeometry width="50" height="50" relative="1" as="geometry">
            <mxPoint x="420" y="334.82" as="sourcePoint" />
            <mxPoint x="480" y="334.82" as="targetPoint" />
          </mxGeometry>
        </mxCell>
        <mxCell id="Jp11gVg7JKC-Gpw7KqHW-151" value="" style="endArrow=none;html=1;rounded=0;" edge="1" parent="1" source="Jp11gVg7JKC-Gpw7KqHW-397">
          <mxGeometry width="50" height="50" relative="1" as="geometry">
            <mxPoint x="420" y="409.82" as="sourcePoint" />
            <mxPoint x="480" y="409.82" as="targetPoint" />
          </mxGeometry>
        </mxCell>
        <mxCell id="Jp11gVg7JKC-Gpw7KqHW-152" value="" style="endArrow=none;html=1;rounded=0;" edge="1" parent="1">
          <mxGeometry width="50" height="50" relative="1" as="geometry">
            <mxPoint x="430" y="345" as="sourcePoint" />
            <mxPoint x="480" y="345" as="targetPoint" />
          </mxGeometry>
        </mxCell>
        <mxCell id="Jp11gVg7JKC-Gpw7KqHW-153" value="" style="endArrow=none;html=1;rounded=0;" edge="1" parent="1">
          <mxGeometry width="50" height="50" relative="1" as="geometry">
            <mxPoint x="430" y="270" as="sourcePoint" />
            <mxPoint x="480" y="270" as="targetPoint" />
          </mxGeometry>
        </mxCell>
        <mxCell id="Jp11gVg7JKC-Gpw7KqHW-301" style="edgeStyle=orthogonalEdgeStyle;rounded=0;orthogonalLoop=1;jettySize=auto;html=1;exitX=1;exitY=0.5;exitDx=0;exitDy=0;exitPerimeter=0;entryX=0.5;entryY=1;entryDx=0;entryDy=0;" edge="1" parent="1" source="Jp11gVg7JKC-Gpw7KqHW-155" target="Jp11gVg7JKC-Gpw7KqHW-289">
          <mxGeometry relative="1" as="geometry" />
        </mxCell>
        <mxCell id="Jp11gVg7JKC-Gpw7KqHW-155" value="" style="shape=xor;whiteSpace=wrap;html=1;" vertex="1" parent="1">
          <mxGeometry x="560" y="290" width="60" height="90" as="geometry" />
        </mxCell>
        <mxCell id="Jp11gVg7JKC-Gpw7KqHW-156" value="" style="shape=or;whiteSpace=wrap;html=1;" vertex="1" parent="1">
          <mxGeometry x="480" y="440" width="40" height="40" as="geometry" />
        </mxCell>
        <mxCell id="Jp11gVg7JKC-Gpw7KqHW-157" value="" style="shape=or;whiteSpace=wrap;html=1;" vertex="1" parent="1">
          <mxGeometry x="480" y="590" width="40" height="40" as="geometry" />
        </mxCell>
        <mxCell id="Jp11gVg7JKC-Gpw7KqHW-158" value="" style="shape=or;whiteSpace=wrap;html=1;" vertex="1" parent="1">
          <mxGeometry x="480" y="490" width="40" height="40" as="geometry" />
        </mxCell>
        <mxCell id="Jp11gVg7JKC-Gpw7KqHW-159" value="" style="shape=or;whiteSpace=wrap;html=1;" vertex="1" parent="1">
          <mxGeometry x="480" y="540" width="40" height="40" as="geometry" />
        </mxCell>
        <mxCell id="Jp11gVg7JKC-Gpw7KqHW-160" value="" style="endArrow=none;html=1;rounded=0;entryX=-0.01;entryY=0.011;entryDx=0;entryDy=0;entryPerimeter=0;" edge="1" parent="1" target="Jp11gVg7JKC-Gpw7KqHW-156" source="Jp11gVg7JKC-Gpw7KqHW-399">
          <mxGeometry width="50" height="50" relative="1" as="geometry">
            <mxPoint x="400" y="440" as="sourcePoint" />
            <mxPoint x="450" y="390" as="targetPoint" />
          </mxGeometry>
        </mxCell>
        <mxCell id="Jp11gVg7JKC-Gpw7KqHW-161" value="" style="endArrow=none;html=1;rounded=0;" edge="1" parent="1" source="Jp11gVg7JKC-Gpw7KqHW-401">
          <mxGeometry width="50" height="50" relative="1" as="geometry">
            <mxPoint x="410" y="450" as="sourcePoint" />
            <mxPoint x="480" y="450" as="targetPoint" />
          </mxGeometry>
        </mxCell>
        <mxCell id="Jp11gVg7JKC-Gpw7KqHW-163" value="" style="endArrow=none;html=1;rounded=0;" edge="1" parent="1">
          <mxGeometry width="50" height="50" relative="1" as="geometry">
            <mxPoint x="430" y="570" as="sourcePoint" />
            <mxPoint x="480" y="570" as="targetPoint" />
          </mxGeometry>
        </mxCell>
        <mxCell id="Jp11gVg7JKC-Gpw7KqHW-164" value="" style="endArrow=none;html=1;rounded=0;entryX=-0.01;entryY=0.011;entryDx=0;entryDy=0;entryPerimeter=0;" edge="1" parent="1" source="Jp11gVg7JKC-Gpw7KqHW-404">
          <mxGeometry width="50" height="50" relative="1" as="geometry">
            <mxPoint x="400" y="490" as="sourcePoint" />
            <mxPoint x="480" y="490" as="targetPoint" />
          </mxGeometry>
        </mxCell>
        <mxCell id="Jp11gVg7JKC-Gpw7KqHW-165" value="" style="endArrow=none;html=1;rounded=0;entryX=-0.01;entryY=0.011;entryDx=0;entryDy=0;entryPerimeter=0;" edge="1" parent="1">
          <mxGeometry width="50" height="50" relative="1" as="geometry">
            <mxPoint x="400" y="540" as="sourcePoint" />
            <mxPoint x="480" y="540" as="targetPoint" />
          </mxGeometry>
        </mxCell>
        <mxCell id="Jp11gVg7JKC-Gpw7KqHW-166" value="" style="endArrow=none;html=1;rounded=0;entryX=-0.01;entryY=0.011;entryDx=0;entryDy=0;entryPerimeter=0;" edge="1" parent="1">
          <mxGeometry width="50" height="50" relative="1" as="geometry">
            <mxPoint x="400" y="590" as="sourcePoint" />
            <mxPoint x="480" y="590" as="targetPoint" />
          </mxGeometry>
        </mxCell>
        <mxCell id="Jp11gVg7JKC-Gpw7KqHW-167" value="" style="endArrow=none;html=1;rounded=0;" edge="1" parent="1" source="Jp11gVg7JKC-Gpw7KqHW-403">
          <mxGeometry width="50" height="50" relative="1" as="geometry">
            <mxPoint x="410" y="500" as="sourcePoint" />
            <mxPoint x="480" y="500" as="targetPoint" />
          </mxGeometry>
        </mxCell>
        <mxCell id="Jp11gVg7JKC-Gpw7KqHW-169" value="" style="endArrow=none;html=1;rounded=0;" edge="1" parent="1">
          <mxGeometry width="50" height="50" relative="1" as="geometry">
            <mxPoint x="410" y="600" as="sourcePoint" />
            <mxPoint x="480" y="600" as="targetPoint" />
          </mxGeometry>
        </mxCell>
        <mxCell id="Jp11gVg7JKC-Gpw7KqHW-170" value="" style="endArrow=none;html=1;rounded=0;" edge="1" parent="1">
          <mxGeometry width="50" height="50" relative="1" as="geometry">
            <mxPoint x="420" y="509.81999999999994" as="sourcePoint" />
            <mxPoint x="480" y="509.81999999999994" as="targetPoint" />
          </mxGeometry>
        </mxCell>
        <mxCell id="Jp11gVg7JKC-Gpw7KqHW-171" value="" style="endArrow=none;html=1;rounded=0;" edge="1" parent="1">
          <mxGeometry width="50" height="50" relative="1" as="geometry">
            <mxPoint x="420" y="559.8199999999999" as="sourcePoint" />
            <mxPoint x="480" y="559.8199999999999" as="targetPoint" />
          </mxGeometry>
        </mxCell>
        <mxCell id="Jp11gVg7JKC-Gpw7KqHW-172" value="" style="endArrow=none;html=1;rounded=0;" edge="1" parent="1" source="Jp11gVg7JKC-Gpw7KqHW-410">
          <mxGeometry width="50" height="50" relative="1" as="geometry">
            <mxPoint x="420" y="609.8199999999999" as="sourcePoint" />
            <mxPoint x="480" y="609.8199999999999" as="targetPoint" />
          </mxGeometry>
        </mxCell>
        <mxCell id="Jp11gVg7JKC-Gpw7KqHW-174" value="" style="endArrow=none;html=1;rounded=0;" edge="1" parent="1">
          <mxGeometry width="50" height="50" relative="1" as="geometry">
            <mxPoint x="430" y="470" as="sourcePoint" />
            <mxPoint x="480" y="470" as="targetPoint" />
          </mxGeometry>
        </mxCell>
        <mxCell id="Jp11gVg7JKC-Gpw7KqHW-175" value="" style="endArrow=none;html=1;rounded=0;" edge="1" parent="1">
          <mxGeometry width="50" height="50" relative="1" as="geometry">
            <mxPoint x="430" y="620" as="sourcePoint" />
            <mxPoint x="480" y="620" as="targetPoint" />
          </mxGeometry>
        </mxCell>
        <mxCell id="Jp11gVg7JKC-Gpw7KqHW-302" style="edgeStyle=orthogonalEdgeStyle;rounded=0;orthogonalLoop=1;jettySize=auto;html=1;exitX=1;exitY=0.5;exitDx=0;exitDy=0;exitPerimeter=0;entryX=0.5;entryY=1;entryDx=0;entryDy=0;" edge="1" parent="1" source="Jp11gVg7JKC-Gpw7KqHW-176" target="Jp11gVg7JKC-Gpw7KqHW-288">
          <mxGeometry relative="1" as="geometry" />
        </mxCell>
        <mxCell id="Jp11gVg7JKC-Gpw7KqHW-176" value="" style="shape=xor;whiteSpace=wrap;html=1;" vertex="1" parent="1">
          <mxGeometry x="560" y="490" width="60" height="90" as="geometry" />
        </mxCell>
        <mxCell id="Jp11gVg7JKC-Gpw7KqHW-178" value="" style="endArrow=none;html=1;rounded=0;" edge="1" parent="1">
          <mxGeometry width="50" height="50" relative="1" as="geometry">
            <mxPoint x="680" y="640" as="sourcePoint" />
            <mxPoint x="680" y="241" as="targetPoint" />
          </mxGeometry>
        </mxCell>
        <mxCell id="Jp11gVg7JKC-Gpw7KqHW-179" value="" style="endArrow=none;html=1;rounded=0;" edge="1" parent="1">
          <mxGeometry width="50" height="50" relative="1" as="geometry">
            <mxPoint x="690" y="650" as="sourcePoint" />
            <mxPoint x="690" y="250" as="targetPoint" />
          </mxGeometry>
        </mxCell>
        <mxCell id="Jp11gVg7JKC-Gpw7KqHW-180" value="" style="endArrow=none;html=1;rounded=0;" edge="1" parent="1">
          <mxGeometry width="50" height="50" relative="1" as="geometry">
            <mxPoint x="700" y="660" as="sourcePoint" />
            <mxPoint x="700" y="260" as="targetPoint" />
          </mxGeometry>
        </mxCell>
        <mxCell id="Jp11gVg7JKC-Gpw7KqHW-181" value="" style="endArrow=none;html=1;rounded=0;" edge="1" parent="1">
          <mxGeometry width="50" height="50" relative="1" as="geometry">
            <mxPoint x="710" y="670" as="sourcePoint" />
            <mxPoint x="710" y="345" as="targetPoint" />
          </mxGeometry>
        </mxCell>
        <mxCell id="Jp11gVg7JKC-Gpw7KqHW-223" value="" style="shape=or;whiteSpace=wrap;html=1;" vertex="1" parent="1">
          <mxGeometry x="760" y="240" width="40" height="40" as="geometry" />
        </mxCell>
        <mxCell id="Jp11gVg7JKC-Gpw7KqHW-224" value="" style="shape=or;whiteSpace=wrap;html=1;" vertex="1" parent="1">
          <mxGeometry x="760" y="390" width="40" height="40" as="geometry" />
        </mxCell>
        <mxCell id="Jp11gVg7JKC-Gpw7KqHW-226" value="" style="shape=or;whiteSpace=wrap;html=1;" vertex="1" parent="1">
          <mxGeometry x="760" y="315" width="40" height="40" as="geometry" />
        </mxCell>
        <mxCell id="Jp11gVg7JKC-Gpw7KqHW-227" value="" style="endArrow=none;html=1;rounded=0;entryX=-0.01;entryY=0.011;entryDx=0;entryDy=0;entryPerimeter=0;" edge="1" parent="1" target="Jp11gVg7JKC-Gpw7KqHW-223" source="Jp11gVg7JKC-Gpw7KqHW-414">
          <mxGeometry width="50" height="50" relative="1" as="geometry">
            <mxPoint x="680" y="240" as="sourcePoint" />
            <mxPoint x="730" y="190" as="targetPoint" />
          </mxGeometry>
        </mxCell>
        <mxCell id="Jp11gVg7JKC-Gpw7KqHW-228" value="" style="endArrow=none;html=1;rounded=0;" edge="1" parent="1" source="Jp11gVg7JKC-Gpw7KqHW-413">
          <mxGeometry width="50" height="50" relative="1" as="geometry">
            <mxPoint x="690" y="250" as="sourcePoint" />
            <mxPoint x="760" y="250" as="targetPoint" />
          </mxGeometry>
        </mxCell>
        <mxCell id="Jp11gVg7JKC-Gpw7KqHW-229" value="" style="endArrow=none;html=1;rounded=0;" edge="1" parent="1" source="Jp11gVg7JKC-Gpw7KqHW-412">
          <mxGeometry width="50" height="50" relative="1" as="geometry">
            <mxPoint x="700" y="260" as="sourcePoint" />
            <mxPoint x="760" y="260" as="targetPoint" />
          </mxGeometry>
        </mxCell>
        <mxCell id="Jp11gVg7JKC-Gpw7KqHW-230" value="" style="endArrow=none;html=1;rounded=0;" edge="1" parent="1" source="Jp11gVg7JKC-Gpw7KqHW-418">
          <mxGeometry width="50" height="50" relative="1" as="geometry">
            <mxPoint x="710" y="345" as="sourcePoint" />
            <mxPoint x="760" y="345" as="targetPoint" />
          </mxGeometry>
        </mxCell>
        <mxCell id="Jp11gVg7JKC-Gpw7KqHW-232" value="" style="endArrow=none;html=1;rounded=0;entryX=-0.01;entryY=0.011;entryDx=0;entryDy=0;entryPerimeter=0;" edge="1" parent="1">
          <mxGeometry width="50" height="50" relative="1" as="geometry">
            <mxPoint x="680" y="315" as="sourcePoint" />
            <mxPoint x="760" y="315" as="targetPoint" />
          </mxGeometry>
        </mxCell>
        <mxCell id="Jp11gVg7JKC-Gpw7KqHW-233" value="" style="endArrow=none;html=1;rounded=0;entryX=-0.01;entryY=0.011;entryDx=0;entryDy=0;entryPerimeter=0;" edge="1" parent="1">
          <mxGeometry width="50" height="50" relative="1" as="geometry">
            <mxPoint x="680" y="390" as="sourcePoint" />
            <mxPoint x="760" y="390" as="targetPoint" />
          </mxGeometry>
        </mxCell>
        <mxCell id="Jp11gVg7JKC-Gpw7KqHW-235" value="" style="endArrow=none;html=1;rounded=0;" edge="1" parent="1">
          <mxGeometry width="50" height="50" relative="1" as="geometry">
            <mxPoint x="690" y="325" as="sourcePoint" />
            <mxPoint x="760" y="325" as="targetPoint" />
          </mxGeometry>
        </mxCell>
        <mxCell id="Jp11gVg7JKC-Gpw7KqHW-236" value="" style="endArrow=none;html=1;rounded=0;" edge="1" parent="1">
          <mxGeometry width="50" height="50" relative="1" as="geometry">
            <mxPoint x="690" y="400" as="sourcePoint" />
            <mxPoint x="760" y="400" as="targetPoint" />
          </mxGeometry>
        </mxCell>
        <mxCell id="Jp11gVg7JKC-Gpw7KqHW-238" value="" style="endArrow=none;html=1;rounded=0;" edge="1" parent="1" source="Jp11gVg7JKC-Gpw7KqHW-419">
          <mxGeometry width="50" height="50" relative="1" as="geometry">
            <mxPoint x="700" y="334.81999999999994" as="sourcePoint" />
            <mxPoint x="760" y="334.81999999999994" as="targetPoint" />
          </mxGeometry>
        </mxCell>
        <mxCell id="Jp11gVg7JKC-Gpw7KqHW-239" value="" style="endArrow=none;html=1;rounded=0;" edge="1" parent="1">
          <mxGeometry width="50" height="50" relative="1" as="geometry">
            <mxPoint x="700" y="409.81999999999994" as="sourcePoint" />
            <mxPoint x="760" y="409.81999999999994" as="targetPoint" />
          </mxGeometry>
        </mxCell>
        <mxCell id="Jp11gVg7JKC-Gpw7KqHW-242" value="" style="endArrow=none;html=1;rounded=0;" edge="1" parent="1">
          <mxGeometry width="50" height="50" relative="1" as="geometry">
            <mxPoint x="710" y="420" as="sourcePoint" />
            <mxPoint x="760" y="420" as="targetPoint" />
          </mxGeometry>
        </mxCell>
        <mxCell id="Jp11gVg7JKC-Gpw7KqHW-303" style="edgeStyle=orthogonalEdgeStyle;rounded=0;orthogonalLoop=1;jettySize=auto;html=1;exitX=1;exitY=0.5;exitDx=0;exitDy=0;exitPerimeter=0;entryX=0.5;entryY=1;entryDx=0;entryDy=0;" edge="1" parent="1" source="Jp11gVg7JKC-Gpw7KqHW-243" target="Jp11gVg7JKC-Gpw7KqHW-286">
          <mxGeometry relative="1" as="geometry" />
        </mxCell>
        <mxCell id="Jp11gVg7JKC-Gpw7KqHW-243" value="" style="shape=xor;whiteSpace=wrap;html=1;" vertex="1" parent="1">
          <mxGeometry x="840" y="290" width="60" height="90" as="geometry" />
        </mxCell>
        <mxCell id="Jp11gVg7JKC-Gpw7KqHW-251" style="edgeStyle=orthogonalEdgeStyle;rounded=0;orthogonalLoop=1;jettySize=auto;html=1;exitX=1;exitY=0.5;exitDx=0;exitDy=0;exitPerimeter=0;entryX=0.175;entryY=0.75;entryDx=0;entryDy=0;entryPerimeter=0;" edge="1" parent="1" source="Jp11gVg7JKC-Gpw7KqHW-49" target="Jp11gVg7JKC-Gpw7KqHW-67">
          <mxGeometry relative="1" as="geometry" />
        </mxCell>
        <mxCell id="Jp11gVg7JKC-Gpw7KqHW-252" style="edgeStyle=orthogonalEdgeStyle;rounded=0;orthogonalLoop=1;jettySize=auto;html=1;exitX=1;exitY=0.5;exitDx=0;exitDy=0;exitPerimeter=0;entryX=0.7;entryY=0.9;entryDx=0;entryDy=0;entryPerimeter=0;" edge="1" parent="1" source="Jp11gVg7JKC-Gpw7KqHW-47" target="Jp11gVg7JKC-Gpw7KqHW-67">
          <mxGeometry relative="1" as="geometry" />
        </mxCell>
        <mxCell id="Jp11gVg7JKC-Gpw7KqHW-253" style="edgeStyle=orthogonalEdgeStyle;rounded=0;orthogonalLoop=1;jettySize=auto;html=1;exitX=1;exitY=0.5;exitDx=0;exitDy=0;exitPerimeter=0;entryX=0.7;entryY=0.1;entryDx=0;entryDy=0;entryPerimeter=0;" edge="1" parent="1" source="Jp11gVg7JKC-Gpw7KqHW-11" target="Jp11gVg7JKC-Gpw7KqHW-67">
          <mxGeometry relative="1" as="geometry" />
        </mxCell>
        <mxCell id="Jp11gVg7JKC-Gpw7KqHW-254" style="edgeStyle=orthogonalEdgeStyle;rounded=0;orthogonalLoop=1;jettySize=auto;html=1;exitX=1;exitY=0.5;exitDx=0;exitDy=0;exitPerimeter=0;entryX=0.175;entryY=0.25;entryDx=0;entryDy=0;entryPerimeter=0;" edge="1" parent="1" source="Jp11gVg7JKC-Gpw7KqHW-48" target="Jp11gVg7JKC-Gpw7KqHW-67">
          <mxGeometry relative="1" as="geometry" />
        </mxCell>
        <mxCell id="Jp11gVg7JKC-Gpw7KqHW-255" style="edgeStyle=orthogonalEdgeStyle;rounded=0;orthogonalLoop=1;jettySize=auto;html=1;exitX=1;exitY=0.5;exitDx=0;exitDy=0;exitPerimeter=0;entryX=0.7;entryY=0.1;entryDx=0;entryDy=0;entryPerimeter=0;" edge="1" parent="1" source="Jp11gVg7JKC-Gpw7KqHW-68" target="Jp11gVg7JKC-Gpw7KqHW-88">
          <mxGeometry relative="1" as="geometry" />
        </mxCell>
        <mxCell id="Jp11gVg7JKC-Gpw7KqHW-256" style="edgeStyle=orthogonalEdgeStyle;rounded=0;orthogonalLoop=1;jettySize=auto;html=1;exitX=1;exitY=0.5;exitDx=0;exitDy=0;exitPerimeter=0;entryX=0.7;entryY=0.9;entryDx=0;entryDy=0;entryPerimeter=0;" edge="1" parent="1" source="Jp11gVg7JKC-Gpw7KqHW-69" target="Jp11gVg7JKC-Gpw7KqHW-88">
          <mxGeometry relative="1" as="geometry" />
        </mxCell>
        <mxCell id="Jp11gVg7JKC-Gpw7KqHW-257" style="edgeStyle=orthogonalEdgeStyle;rounded=0;orthogonalLoop=1;jettySize=auto;html=1;exitX=1;exitY=0.5;exitDx=0;exitDy=0;exitPerimeter=0;entryX=0.175;entryY=0.75;entryDx=0;entryDy=0;entryPerimeter=0;" edge="1" parent="1" source="Jp11gVg7JKC-Gpw7KqHW-71" target="Jp11gVg7JKC-Gpw7KqHW-88">
          <mxGeometry relative="1" as="geometry" />
        </mxCell>
        <mxCell id="Jp11gVg7JKC-Gpw7KqHW-258" style="edgeStyle=orthogonalEdgeStyle;rounded=0;orthogonalLoop=1;jettySize=auto;html=1;exitX=1;exitY=0.5;exitDx=0;exitDy=0;exitPerimeter=0;entryX=0.175;entryY=0.25;entryDx=0;entryDy=0;entryPerimeter=0;" edge="1" parent="1" source="Jp11gVg7JKC-Gpw7KqHW-70" target="Jp11gVg7JKC-Gpw7KqHW-88">
          <mxGeometry relative="1" as="geometry" />
        </mxCell>
        <mxCell id="Jp11gVg7JKC-Gpw7KqHW-261" style="edgeStyle=orthogonalEdgeStyle;rounded=0;orthogonalLoop=1;jettySize=auto;html=1;exitX=1;exitY=0.5;exitDx=0;exitDy=0;exitPerimeter=0;entryX=0.7;entryY=0.1;entryDx=0;entryDy=0;entryPerimeter=0;" edge="1" parent="1" source="Jp11gVg7JKC-Gpw7KqHW-89" target="Jp11gVg7JKC-Gpw7KqHW-109">
          <mxGeometry relative="1" as="geometry" />
        </mxCell>
        <mxCell id="Jp11gVg7JKC-Gpw7KqHW-262" style="edgeStyle=orthogonalEdgeStyle;rounded=0;orthogonalLoop=1;jettySize=auto;html=1;entryX=0.7;entryY=0.9;entryDx=0;entryDy=0;entryPerimeter=0;" edge="1" parent="1" source="Jp11gVg7JKC-Gpw7KqHW-90" target="Jp11gVg7JKC-Gpw7KqHW-109">
          <mxGeometry relative="1" as="geometry" />
        </mxCell>
        <mxCell id="Jp11gVg7JKC-Gpw7KqHW-263" style="edgeStyle=orthogonalEdgeStyle;rounded=0;orthogonalLoop=1;jettySize=auto;html=1;exitX=1;exitY=0.5;exitDx=0;exitDy=0;exitPerimeter=0;entryX=0.25;entryY=0.5;entryDx=0;entryDy=0;entryPerimeter=0;" edge="1" parent="1" source="Jp11gVg7JKC-Gpw7KqHW-91" target="Jp11gVg7JKC-Gpw7KqHW-109">
          <mxGeometry relative="1" as="geometry" />
        </mxCell>
        <mxCell id="Jp11gVg7JKC-Gpw7KqHW-264" style="edgeStyle=orthogonalEdgeStyle;rounded=0;orthogonalLoop=1;jettySize=auto;html=1;exitX=1;exitY=0.5;exitDx=0;exitDy=0;exitPerimeter=0;entryX=0.7;entryY=0.1;entryDx=0;entryDy=0;entryPerimeter=0;" edge="1" parent="1" source="Jp11gVg7JKC-Gpw7KqHW-110" target="Jp11gVg7JKC-Gpw7KqHW-134">
          <mxGeometry relative="1" as="geometry" />
        </mxCell>
        <mxCell id="Jp11gVg7JKC-Gpw7KqHW-265" style="edgeStyle=orthogonalEdgeStyle;rounded=0;orthogonalLoop=1;jettySize=auto;html=1;exitX=1;exitY=0.5;exitDx=0;exitDy=0;exitPerimeter=0;entryX=0.175;entryY=0.25;entryDx=0;entryDy=0;entryPerimeter=0;" edge="1" parent="1" source="Jp11gVg7JKC-Gpw7KqHW-116" target="Jp11gVg7JKC-Gpw7KqHW-134">
          <mxGeometry relative="1" as="geometry" />
        </mxCell>
        <mxCell id="Jp11gVg7JKC-Gpw7KqHW-266" style="edgeStyle=orthogonalEdgeStyle;rounded=0;orthogonalLoop=1;jettySize=auto;html=1;exitX=1;exitY=0.5;exitDx=0;exitDy=0;exitPerimeter=0;entryX=0.175;entryY=0.75;entryDx=0;entryDy=0;entryPerimeter=0;" edge="1" parent="1" source="Jp11gVg7JKC-Gpw7KqHW-117" target="Jp11gVg7JKC-Gpw7KqHW-134">
          <mxGeometry relative="1" as="geometry" />
        </mxCell>
        <mxCell id="Jp11gVg7JKC-Gpw7KqHW-268" style="edgeStyle=orthogonalEdgeStyle;rounded=0;orthogonalLoop=1;jettySize=auto;html=1;exitX=1;exitY=0.5;exitDx=0;exitDy=0;exitPerimeter=0;entryX=0.7;entryY=0.9;entryDx=0;entryDy=0;entryPerimeter=0;" edge="1" parent="1" source="Jp11gVg7JKC-Gpw7KqHW-115" target="Jp11gVg7JKC-Gpw7KqHW-134">
          <mxGeometry relative="1" as="geometry" />
        </mxCell>
        <mxCell id="Jp11gVg7JKC-Gpw7KqHW-269" style="edgeStyle=orthogonalEdgeStyle;rounded=0;orthogonalLoop=1;jettySize=auto;html=1;exitX=1;exitY=0.5;exitDx=0;exitDy=0;exitPerimeter=0;entryX=0.7;entryY=0.1;entryDx=0;entryDy=0;entryPerimeter=0;" edge="1" parent="1" source="Jp11gVg7JKC-Gpw7KqHW-135" target="Jp11gVg7JKC-Gpw7KqHW-155">
          <mxGeometry relative="1" as="geometry" />
        </mxCell>
        <mxCell id="Jp11gVg7JKC-Gpw7KqHW-270" style="edgeStyle=orthogonalEdgeStyle;rounded=0;orthogonalLoop=1;jettySize=auto;html=1;exitX=1;exitY=0.5;exitDx=0;exitDy=0;exitPerimeter=0;entryX=0.7;entryY=0.9;entryDx=0;entryDy=0;entryPerimeter=0;" edge="1" parent="1" source="Jp11gVg7JKC-Gpw7KqHW-136" target="Jp11gVg7JKC-Gpw7KqHW-155">
          <mxGeometry relative="1" as="geometry" />
        </mxCell>
        <mxCell id="Jp11gVg7JKC-Gpw7KqHW-272" style="edgeStyle=orthogonalEdgeStyle;rounded=0;orthogonalLoop=1;jettySize=auto;html=1;exitX=1;exitY=0.5;exitDx=0;exitDy=0;exitPerimeter=0;entryX=0.7;entryY=0.1;entryDx=0;entryDy=0;entryPerimeter=0;" edge="1" parent="1" source="Jp11gVg7JKC-Gpw7KqHW-156" target="Jp11gVg7JKC-Gpw7KqHW-176">
          <mxGeometry relative="1" as="geometry" />
        </mxCell>
        <mxCell id="Jp11gVg7JKC-Gpw7KqHW-273" style="edgeStyle=orthogonalEdgeStyle;rounded=0;orthogonalLoop=1;jettySize=auto;html=1;exitX=1;exitY=0.5;exitDx=0;exitDy=0;exitPerimeter=0;entryX=0.175;entryY=0.25;entryDx=0;entryDy=0;entryPerimeter=0;" edge="1" parent="1" source="Jp11gVg7JKC-Gpw7KqHW-158" target="Jp11gVg7JKC-Gpw7KqHW-176">
          <mxGeometry relative="1" as="geometry" />
        </mxCell>
        <mxCell id="Jp11gVg7JKC-Gpw7KqHW-274" style="edgeStyle=orthogonalEdgeStyle;rounded=0;orthogonalLoop=1;jettySize=auto;html=1;exitX=1;exitY=0.5;exitDx=0;exitDy=0;exitPerimeter=0;entryX=0.175;entryY=0.75;entryDx=0;entryDy=0;entryPerimeter=0;" edge="1" parent="1" source="Jp11gVg7JKC-Gpw7KqHW-159" target="Jp11gVg7JKC-Gpw7KqHW-176">
          <mxGeometry relative="1" as="geometry" />
        </mxCell>
        <mxCell id="Jp11gVg7JKC-Gpw7KqHW-275" style="edgeStyle=orthogonalEdgeStyle;rounded=0;orthogonalLoop=1;jettySize=auto;html=1;exitX=1;exitY=0.5;exitDx=0;exitDy=0;exitPerimeter=0;entryX=0.7;entryY=0.9;entryDx=0;entryDy=0;entryPerimeter=0;" edge="1" parent="1" source="Jp11gVg7JKC-Gpw7KqHW-157" target="Jp11gVg7JKC-Gpw7KqHW-176">
          <mxGeometry relative="1" as="geometry" />
        </mxCell>
        <mxCell id="Jp11gVg7JKC-Gpw7KqHW-276" style="edgeStyle=orthogonalEdgeStyle;rounded=0;orthogonalLoop=1;jettySize=auto;html=1;exitX=1;exitY=0.5;exitDx=0;exitDy=0;exitPerimeter=0;entryX=0.7;entryY=0.1;entryDx=0;entryDy=0;entryPerimeter=0;" edge="1" parent="1" source="Jp11gVg7JKC-Gpw7KqHW-223" target="Jp11gVg7JKC-Gpw7KqHW-243">
          <mxGeometry relative="1" as="geometry" />
        </mxCell>
        <mxCell id="Jp11gVg7JKC-Gpw7KqHW-278" style="edgeStyle=orthogonalEdgeStyle;rounded=0;orthogonalLoop=1;jettySize=auto;html=1;exitX=1;exitY=0.5;exitDx=0;exitDy=0;exitPerimeter=0;entryX=0.7;entryY=0.9;entryDx=0;entryDy=0;entryPerimeter=0;" edge="1" parent="1" source="Jp11gVg7JKC-Gpw7KqHW-224" target="Jp11gVg7JKC-Gpw7KqHW-243">
          <mxGeometry relative="1" as="geometry" />
        </mxCell>
        <mxCell id="Jp11gVg7JKC-Gpw7KqHW-280" style="edgeStyle=orthogonalEdgeStyle;rounded=0;orthogonalLoop=1;jettySize=auto;html=1;exitX=1;exitY=0.5;exitDx=0;exitDy=0;exitPerimeter=0;entryX=0.25;entryY=0.5;entryDx=0;entryDy=0;entryPerimeter=0;" edge="1" parent="1" source="Jp11gVg7JKC-Gpw7KqHW-226" target="Jp11gVg7JKC-Gpw7KqHW-243">
          <mxGeometry relative="1" as="geometry" />
        </mxCell>
        <mxCell id="Jp11gVg7JKC-Gpw7KqHW-285" value="" style="shape=offPageConnector;whiteSpace=wrap;html=1;direction=south;" vertex="1" parent="1">
          <mxGeometry x="350" y="125" width="40" height="20" as="geometry" />
        </mxCell>
        <mxCell id="Jp11gVg7JKC-Gpw7KqHW-286" value="" style="shape=offPageConnector;whiteSpace=wrap;html=1;direction=south;" vertex="1" parent="1">
          <mxGeometry x="910" y="325" width="40" height="20" as="geometry" />
        </mxCell>
        <mxCell id="Jp11gVg7JKC-Gpw7KqHW-288" value="" style="shape=offPageConnector;whiteSpace=wrap;html=1;direction=south;" vertex="1" parent="1">
          <mxGeometry x="630" y="525" width="40" height="20" as="geometry" />
        </mxCell>
        <mxCell id="Jp11gVg7JKC-Gpw7KqHW-289" value="" style="shape=offPageConnector;whiteSpace=wrap;html=1;direction=south;" vertex="1" parent="1">
          <mxGeometry x="630" y="325" width="40" height="20" as="geometry" />
        </mxCell>
        <mxCell id="Jp11gVg7JKC-Gpw7KqHW-290" value="" style="shape=offPageConnector;whiteSpace=wrap;html=1;direction=south;" vertex="1" parent="1">
          <mxGeometry x="630" y="125" width="40" height="20" as="geometry" />
        </mxCell>
        <mxCell id="Jp11gVg7JKC-Gpw7KqHW-291" value="" style="shape=offPageConnector;whiteSpace=wrap;html=1;direction=south;" vertex="1" parent="1">
          <mxGeometry x="350" y="525" width="40" height="20" as="geometry" />
        </mxCell>
        <mxCell id="Jp11gVg7JKC-Gpw7KqHW-292" value="" style="shape=offPageConnector;whiteSpace=wrap;html=1;direction=south;" vertex="1" parent="1">
          <mxGeometry x="350" y="325" width="40" height="20" as="geometry" />
        </mxCell>
        <mxCell id="Jp11gVg7JKC-Gpw7KqHW-305" value="A" style="text;html=1;align=center;verticalAlign=middle;whiteSpace=wrap;rounded=0;" vertex="1" parent="1">
          <mxGeometry x="345" y="100" width="50" height="25" as="geometry" />
        </mxCell>
        <mxCell id="Jp11gVg7JKC-Gpw7KqHW-306" value="C" style="text;html=1;align=center;verticalAlign=middle;whiteSpace=wrap;rounded=0;" vertex="1" parent="1">
          <mxGeometry x="350" y="500" width="50" height="25" as="geometry" />
        </mxCell>
        <mxCell id="Jp11gVg7JKC-Gpw7KqHW-307" value="G" style="text;html=1;align=center;verticalAlign=middle;whiteSpace=wrap;rounded=0;" vertex="1" parent="1">
          <mxGeometry x="910" y="297.5" width="50" height="25" as="geometry" />
        </mxCell>
        <mxCell id="Jp11gVg7JKC-Gpw7KqHW-308" value="E" style="text;html=1;align=center;verticalAlign=middle;whiteSpace=wrap;rounded=0;" vertex="1" parent="1">
          <mxGeometry x="630" y="300" width="50" height="25" as="geometry" />
        </mxCell>
        <mxCell id="Jp11gVg7JKC-Gpw7KqHW-309" value="B" style="text;html=1;align=center;verticalAlign=middle;whiteSpace=wrap;rounded=0;" vertex="1" parent="1">
          <mxGeometry x="350" y="300" width="50" height="25" as="geometry" />
        </mxCell>
        <mxCell id="Jp11gVg7JKC-Gpw7KqHW-311" value="D" style="text;html=1;align=center;verticalAlign=middle;whiteSpace=wrap;rounded=0;" vertex="1" parent="1">
          <mxGeometry x="630" y="97.5" width="50" height="25" as="geometry" />
        </mxCell>
        <mxCell id="Jp11gVg7JKC-Gpw7KqHW-313" value="F" style="text;html=1;align=center;verticalAlign=middle;whiteSpace=wrap;rounded=0;" vertex="1" parent="1">
          <mxGeometry x="630" y="500" width="50" height="25" as="geometry" />
        </mxCell>
        <mxCell id="Jp11gVg7JKC-Gpw7KqHW-321" value="" style="endArrow=none;html=1;rounded=0;" edge="1" parent="1">
          <mxGeometry width="50" height="50" relative="1" as="geometry">
            <mxPoint x="120" y="640" as="sourcePoint" />
            <mxPoint x="680" y="640" as="targetPoint" />
          </mxGeometry>
        </mxCell>
        <mxCell id="Jp11gVg7JKC-Gpw7KqHW-322" value="" style="endArrow=none;html=1;rounded=0;" edge="1" parent="1">
          <mxGeometry width="50" height="50" relative="1" as="geometry">
            <mxPoint x="130" y="650" as="sourcePoint" />
            <mxPoint x="690" y="650" as="targetPoint" />
          </mxGeometry>
        </mxCell>
        <mxCell id="Jp11gVg7JKC-Gpw7KqHW-323" value="" style="endArrow=none;html=1;rounded=0;" edge="1" parent="1">
          <mxGeometry width="50" height="50" relative="1" as="geometry">
            <mxPoint x="140" y="660" as="sourcePoint" />
            <mxPoint x="700" y="660" as="targetPoint" />
          </mxGeometry>
        </mxCell>
        <mxCell id="Jp11gVg7JKC-Gpw7KqHW-324" value="" style="endArrow=none;html=1;rounded=0;" edge="1" parent="1">
          <mxGeometry width="50" height="50" relative="1" as="geometry">
            <mxPoint x="150" y="670" as="sourcePoint" />
            <mxPoint x="710" y="670" as="targetPoint" />
          </mxGeometry>
        </mxCell>
        <mxCell id="Jp11gVg7JKC-Gpw7KqHW-335" value="" style="endArrow=none;html=1;rounded=0;entryX=0;entryY=0.5;entryDx=0;entryDy=0;entryPerimeter=0;" edge="1" parent="1" target="Jp11gVg7JKC-Gpw7KqHW-334">
          <mxGeometry width="50" height="50" relative="1" as="geometry">
            <mxPoint x="120" y="40" as="sourcePoint" />
            <mxPoint x="200" y="40" as="targetPoint" />
          </mxGeometry>
        </mxCell>
        <mxCell id="Jp11gVg7JKC-Gpw7KqHW-334" value="" style="verticalLabelPosition=bottom;shadow=0;dashed=0;align=center;html=1;verticalAlign=top;shape=mxgraph.electrical.logic_gates.inverter_2" vertex="1" parent="1">
          <mxGeometry x="180" y="35" width="20" height="10" as="geometry" />
        </mxCell>
        <mxCell id="Jp11gVg7JKC-Gpw7KqHW-338" value="" style="endArrow=none;html=1;rounded=0;" edge="1" parent="1" target="Jp11gVg7JKC-Gpw7KqHW-337">
          <mxGeometry width="50" height="50" relative="1" as="geometry">
            <mxPoint x="130" y="50" as="sourcePoint" />
            <mxPoint x="200" y="50" as="targetPoint" />
          </mxGeometry>
        </mxCell>
        <mxCell id="Jp11gVg7JKC-Gpw7KqHW-337" value="" style="verticalLabelPosition=bottom;shadow=0;dashed=0;align=center;html=1;verticalAlign=top;shape=mxgraph.electrical.logic_gates.inverter_2" vertex="1" parent="1">
          <mxGeometry x="180" y="45" width="20" height="10" as="geometry" />
        </mxCell>
        <mxCell id="Jp11gVg7JKC-Gpw7KqHW-339" value="" style="endArrow=none;html=1;rounded=0;" edge="1" parent="1" target="Jp11gVg7JKC-Gpw7KqHW-336">
          <mxGeometry width="50" height="50" relative="1" as="geometry">
            <mxPoint x="140" y="60" as="sourcePoint" />
            <mxPoint x="200" y="60" as="targetPoint" />
          </mxGeometry>
        </mxCell>
        <mxCell id="Jp11gVg7JKC-Gpw7KqHW-336" value="" style="verticalLabelPosition=bottom;shadow=0;dashed=0;align=center;html=1;verticalAlign=top;shape=mxgraph.electrical.logic_gates.inverter_2" vertex="1" parent="1">
          <mxGeometry x="180" y="55" width="20" height="10" as="geometry" />
        </mxCell>
        <mxCell id="Jp11gVg7JKC-Gpw7KqHW-343" value="" style="endArrow=none;html=1;rounded=0;entryX=0;entryY=0.5;entryDx=0;entryDy=0;entryPerimeter=0;" edge="1" parent="1" target="Jp11gVg7JKC-Gpw7KqHW-342">
          <mxGeometry width="50" height="50" relative="1" as="geometry">
            <mxPoint x="120" y="90" as="sourcePoint" />
            <mxPoint x="200" y="90" as="targetPoint" />
          </mxGeometry>
        </mxCell>
        <mxCell id="Jp11gVg7JKC-Gpw7KqHW-342" value="" style="verticalLabelPosition=bottom;shadow=0;dashed=0;align=center;html=1;verticalAlign=top;shape=mxgraph.electrical.logic_gates.inverter_2" vertex="1" parent="1">
          <mxGeometry x="180" y="85" width="20" height="10" as="geometry" />
        </mxCell>
        <mxCell id="Jp11gVg7JKC-Gpw7KqHW-344" value="" style="endArrow=none;html=1;rounded=0;" edge="1" parent="1" target="Jp11gVg7JKC-Gpw7KqHW-341">
          <mxGeometry width="50" height="50" relative="1" as="geometry">
            <mxPoint x="140" y="109.82" as="sourcePoint" />
            <mxPoint x="200" y="109.82" as="targetPoint" />
          </mxGeometry>
        </mxCell>
        <mxCell id="Jp11gVg7JKC-Gpw7KqHW-341" value="" style="verticalLabelPosition=bottom;shadow=0;dashed=0;align=center;html=1;verticalAlign=top;shape=mxgraph.electrical.logic_gates.inverter_2" vertex="1" parent="1">
          <mxGeometry x="180" y="105" width="20" height="10" as="geometry" />
        </mxCell>
        <mxCell id="Jp11gVg7JKC-Gpw7KqHW-345" value="" style="endArrow=none;html=1;rounded=0;" edge="1" parent="1" target="Jp11gVg7JKC-Gpw7KqHW-340">
          <mxGeometry width="50" height="50" relative="1" as="geometry">
            <mxPoint x="150" y="120" as="sourcePoint" />
            <mxPoint x="200" y="120" as="targetPoint" />
          </mxGeometry>
        </mxCell>
        <mxCell id="Jp11gVg7JKC-Gpw7KqHW-340" value="" style="verticalLabelPosition=bottom;shadow=0;dashed=0;align=center;html=1;verticalAlign=top;shape=mxgraph.electrical.logic_gates.inverter_2" vertex="1" parent="1">
          <mxGeometry x="180" y="115" width="20" height="10" as="geometry" />
        </mxCell>
        <mxCell id="Jp11gVg7JKC-Gpw7KqHW-348" value="" style="endArrow=none;html=1;rounded=0;" edge="1" parent="1" target="Jp11gVg7JKC-Gpw7KqHW-347">
          <mxGeometry width="50" height="50" relative="1" as="geometry">
            <mxPoint x="140" y="159.82" as="sourcePoint" />
            <mxPoint x="200" y="159.82" as="targetPoint" />
          </mxGeometry>
        </mxCell>
        <mxCell id="Jp11gVg7JKC-Gpw7KqHW-347" value="" style="verticalLabelPosition=bottom;shadow=0;dashed=0;align=center;html=1;verticalAlign=top;shape=mxgraph.electrical.logic_gates.inverter_2" vertex="1" parent="1">
          <mxGeometry x="180" y="155" width="20" height="10" as="geometry" />
        </mxCell>
        <mxCell id="Jp11gVg7JKC-Gpw7KqHW-350" value="" style="endArrow=none;html=1;rounded=0;" edge="1" parent="1" target="Jp11gVg7JKC-Gpw7KqHW-349">
          <mxGeometry width="50" height="50" relative="1" as="geometry">
            <mxPoint x="130" y="200" as="sourcePoint" />
            <mxPoint x="200" y="200" as="targetPoint" />
          </mxGeometry>
        </mxCell>
        <mxCell id="Jp11gVg7JKC-Gpw7KqHW-349" value="" style="verticalLabelPosition=bottom;shadow=0;dashed=0;align=center;html=1;verticalAlign=top;shape=mxgraph.electrical.logic_gates.inverter_2" vertex="1" parent="1">
          <mxGeometry x="179" y="195" width="20" height="10" as="geometry" />
        </mxCell>
        <mxCell id="Jp11gVg7JKC-Gpw7KqHW-352" value="" style="endArrow=none;html=1;rounded=0;" edge="1" parent="1" target="Jp11gVg7JKC-Gpw7KqHW-351">
          <mxGeometry width="50" height="50" relative="1" as="geometry">
            <mxPoint x="140" y="260" as="sourcePoint" />
            <mxPoint x="200" y="260" as="targetPoint" />
          </mxGeometry>
        </mxCell>
        <mxCell id="Jp11gVg7JKC-Gpw7KqHW-351" value="" style="verticalLabelPosition=bottom;shadow=0;dashed=0;align=center;html=1;verticalAlign=top;shape=mxgraph.electrical.logic_gates.inverter_2" vertex="1" parent="1">
          <mxGeometry x="180" y="255" width="20" height="10" as="geometry" />
        </mxCell>
        <mxCell id="Jp11gVg7JKC-Gpw7KqHW-354" value="" style="endArrow=none;html=1;rounded=0;" edge="1" parent="1" target="Jp11gVg7JKC-Gpw7KqHW-353">
          <mxGeometry width="50" height="50" relative="1" as="geometry">
            <mxPoint x="150" y="370" as="sourcePoint" />
            <mxPoint x="200" y="370" as="targetPoint" />
          </mxGeometry>
        </mxCell>
        <mxCell id="Jp11gVg7JKC-Gpw7KqHW-353" value="" style="verticalLabelPosition=bottom;shadow=0;dashed=0;align=center;html=1;verticalAlign=top;shape=mxgraph.electrical.logic_gates.inverter_2" vertex="1" parent="1">
          <mxGeometry x="180" y="365" width="20" height="10" as="geometry" />
        </mxCell>
        <mxCell id="Jp11gVg7JKC-Gpw7KqHW-357" value="" style="endArrow=none;html=1;rounded=0;" edge="1" parent="1">
          <mxGeometry width="50" height="50" relative="1" as="geometry">
            <mxPoint x="120" y="390" as="sourcePoint" />
            <mxPoint x="181" y="390" as="targetPoint" />
          </mxGeometry>
        </mxCell>
        <mxCell id="Jp11gVg7JKC-Gpw7KqHW-356" value="" style="verticalLabelPosition=bottom;shadow=0;dashed=0;align=center;html=1;verticalAlign=top;shape=mxgraph.electrical.logic_gates.inverter_2" vertex="1" parent="1">
          <mxGeometry x="181" y="385" width="20" height="10" as="geometry" />
        </mxCell>
        <mxCell id="Jp11gVg7JKC-Gpw7KqHW-358" value="" style="endArrow=none;html=1;rounded=0;" edge="1" parent="1" target="Jp11gVg7JKC-Gpw7KqHW-355">
          <mxGeometry width="50" height="50" relative="1" as="geometry">
            <mxPoint x="150" y="420" as="sourcePoint" />
            <mxPoint x="200" y="420" as="targetPoint" />
          </mxGeometry>
        </mxCell>
        <mxCell id="Jp11gVg7JKC-Gpw7KqHW-355" value="" style="verticalLabelPosition=bottom;shadow=0;dashed=0;align=center;html=1;verticalAlign=top;shape=mxgraph.electrical.logic_gates.inverter_2" vertex="1" parent="1">
          <mxGeometry x="180" y="415" width="20" height="10" as="geometry" />
        </mxCell>
        <mxCell id="Jp11gVg7JKC-Gpw7KqHW-360" value="" style="endArrow=none;html=1;rounded=0;" edge="1" parent="1" target="Jp11gVg7JKC-Gpw7KqHW-359">
          <mxGeometry width="50" height="50" relative="1" as="geometry">
            <mxPoint x="150" y="470" as="sourcePoint" />
            <mxPoint x="200" y="470" as="targetPoint" />
          </mxGeometry>
        </mxCell>
        <mxCell id="Jp11gVg7JKC-Gpw7KqHW-359" value="" style="verticalLabelPosition=bottom;shadow=0;dashed=0;align=center;html=1;verticalAlign=top;shape=mxgraph.electrical.logic_gates.inverter_2" vertex="1" parent="1">
          <mxGeometry x="179" y="465" width="20" height="10" as="geometry" />
        </mxCell>
        <mxCell id="Jp11gVg7JKC-Gpw7KqHW-364" value="" style="endArrow=none;html=1;rounded=0;entryX=0;entryY=0.5;entryDx=0;entryDy=0;entryPerimeter=0;" edge="1" parent="1" target="Jp11gVg7JKC-Gpw7KqHW-363">
          <mxGeometry width="50" height="50" relative="1" as="geometry">
            <mxPoint x="120" y="515" as="sourcePoint" />
            <mxPoint x="200" y="515" as="targetPoint" />
          </mxGeometry>
        </mxCell>
        <mxCell id="Jp11gVg7JKC-Gpw7KqHW-363" value="" style="verticalLabelPosition=bottom;shadow=0;dashed=0;align=center;html=1;verticalAlign=top;shape=mxgraph.electrical.logic_gates.inverter_2" vertex="1" parent="1">
          <mxGeometry x="180" y="510" width="20" height="10" as="geometry" />
        </mxCell>
        <mxCell id="Jp11gVg7JKC-Gpw7KqHW-365" value="" style="endArrow=none;html=1;rounded=0;" edge="1" parent="1" target="Jp11gVg7JKC-Gpw7KqHW-362">
          <mxGeometry width="50" height="50" relative="1" as="geometry">
            <mxPoint x="130" y="525" as="sourcePoint" />
            <mxPoint x="200" y="525" as="targetPoint" />
          </mxGeometry>
        </mxCell>
        <mxCell id="Jp11gVg7JKC-Gpw7KqHW-362" value="" style="verticalLabelPosition=bottom;shadow=0;dashed=0;align=center;html=1;verticalAlign=top;shape=mxgraph.electrical.logic_gates.inverter_2" vertex="1" parent="1">
          <mxGeometry x="180" y="520" width="20" height="10" as="geometry" />
        </mxCell>
        <mxCell id="Jp11gVg7JKC-Gpw7KqHW-366" value="" style="endArrow=none;html=1;rounded=0;" edge="1" parent="1" target="Jp11gVg7JKC-Gpw7KqHW-361">
          <mxGeometry width="50" height="50" relative="1" as="geometry">
            <mxPoint x="150" y="545" as="sourcePoint" />
            <mxPoint x="200" y="545" as="targetPoint" />
          </mxGeometry>
        </mxCell>
        <mxCell id="Jp11gVg7JKC-Gpw7KqHW-361" value="" style="verticalLabelPosition=bottom;shadow=0;dashed=0;align=center;html=1;verticalAlign=top;shape=mxgraph.electrical.logic_gates.inverter_2" vertex="1" parent="1">
          <mxGeometry x="180" y="540" width="20" height="10" as="geometry" />
        </mxCell>
        <mxCell id="Jp11gVg7JKC-Gpw7KqHW-371" value="" style="endArrow=none;html=1;rounded=0;entryX=0;entryY=0.5;entryDx=0;entryDy=0;entryPerimeter=0;" edge="1" parent="1" target="Jp11gVg7JKC-Gpw7KqHW-370">
          <mxGeometry width="50" height="50" relative="1" as="geometry">
            <mxPoint x="400" y="40" as="sourcePoint" />
            <mxPoint x="480" y="40" as="targetPoint" />
          </mxGeometry>
        </mxCell>
        <mxCell id="Jp11gVg7JKC-Gpw7KqHW-370" value="" style="verticalLabelPosition=bottom;shadow=0;dashed=0;align=center;html=1;verticalAlign=top;shape=mxgraph.electrical.logic_gates.inverter_2" vertex="1" parent="1">
          <mxGeometry x="460" y="35" width="20" height="10" as="geometry" />
        </mxCell>
        <mxCell id="Jp11gVg7JKC-Gpw7KqHW-372" value="" style="endArrow=none;html=1;rounded=0;" edge="1" parent="1" target="Jp11gVg7JKC-Gpw7KqHW-369">
          <mxGeometry width="50" height="50" relative="1" as="geometry">
            <mxPoint x="410" y="50" as="sourcePoint" />
            <mxPoint x="480" y="50" as="targetPoint" />
          </mxGeometry>
        </mxCell>
        <mxCell id="Jp11gVg7JKC-Gpw7KqHW-369" value="" style="verticalLabelPosition=bottom;shadow=0;dashed=0;align=center;html=1;verticalAlign=top;shape=mxgraph.electrical.logic_gates.inverter_2" vertex="1" parent="1">
          <mxGeometry x="460" y="45" width="20" height="10" as="geometry" />
        </mxCell>
        <mxCell id="Jp11gVg7JKC-Gpw7KqHW-373" value="" style="endArrow=none;html=1;rounded=0;" edge="1" parent="1" target="Jp11gVg7JKC-Gpw7KqHW-368">
          <mxGeometry width="50" height="50" relative="1" as="geometry">
            <mxPoint x="420" y="60" as="sourcePoint" />
            <mxPoint x="480" y="60" as="targetPoint" />
          </mxGeometry>
        </mxCell>
        <mxCell id="Jp11gVg7JKC-Gpw7KqHW-368" value="" style="verticalLabelPosition=bottom;shadow=0;dashed=0;align=center;html=1;verticalAlign=top;shape=mxgraph.electrical.logic_gates.inverter_2" vertex="1" parent="1">
          <mxGeometry x="460" y="55" width="20" height="10" as="geometry" />
        </mxCell>
        <mxCell id="Jp11gVg7JKC-Gpw7KqHW-376" value="" style="endArrow=none;html=1;rounded=0;entryX=0;entryY=0.5;entryDx=0;entryDy=0;entryPerimeter=0;" edge="1" parent="1" target="Jp11gVg7JKC-Gpw7KqHW-375">
          <mxGeometry width="50" height="50" relative="1" as="geometry">
            <mxPoint x="400" y="90" as="sourcePoint" />
            <mxPoint x="480" y="90" as="targetPoint" />
          </mxGeometry>
        </mxCell>
        <mxCell id="Jp11gVg7JKC-Gpw7KqHW-375" value="" style="verticalLabelPosition=bottom;shadow=0;dashed=0;align=center;html=1;verticalAlign=top;shape=mxgraph.electrical.logic_gates.inverter_2" vertex="1" parent="1">
          <mxGeometry x="460" y="85" width="20" height="10" as="geometry" />
        </mxCell>
        <mxCell id="Jp11gVg7JKC-Gpw7KqHW-377" value="" style="endArrow=none;html=1;rounded=0;" edge="1" parent="1" target="Jp11gVg7JKC-Gpw7KqHW-367">
          <mxGeometry width="50" height="50" relative="1" as="geometry">
            <mxPoint x="430" y="120" as="sourcePoint" />
            <mxPoint x="480" y="120" as="targetPoint" />
          </mxGeometry>
        </mxCell>
        <mxCell id="Jp11gVg7JKC-Gpw7KqHW-367" value="" style="verticalLabelPosition=bottom;shadow=0;dashed=0;align=center;html=1;verticalAlign=top;shape=mxgraph.electrical.logic_gates.inverter_2" vertex="1" parent="1">
          <mxGeometry x="460" y="115" width="20" height="10" as="geometry" />
        </mxCell>
        <mxCell id="Jp11gVg7JKC-Gpw7KqHW-378" value="" style="endArrow=none;html=1;rounded=0;" edge="1" parent="1" target="Jp11gVg7JKC-Gpw7KqHW-374">
          <mxGeometry width="50" height="50" relative="1" as="geometry">
            <mxPoint x="420" y="109.82" as="sourcePoint" />
            <mxPoint x="480" y="109.82" as="targetPoint" />
          </mxGeometry>
        </mxCell>
        <mxCell id="Jp11gVg7JKC-Gpw7KqHW-374" value="" style="verticalLabelPosition=bottom;shadow=0;dashed=0;align=center;html=1;verticalAlign=top;shape=mxgraph.electrical.logic_gates.inverter_2" vertex="1" parent="1">
          <mxGeometry x="460" y="105" width="20" height="10" as="geometry" />
        </mxCell>
        <mxCell id="Jp11gVg7JKC-Gpw7KqHW-387" value="" style="endArrow=none;html=1;rounded=0;" edge="1" parent="1" target="Jp11gVg7JKC-Gpw7KqHW-380">
          <mxGeometry width="50" height="50" relative="1" as="geometry">
            <mxPoint x="410" y="200" as="sourcePoint" />
            <mxPoint x="480" y="200" as="targetPoint" />
          </mxGeometry>
        </mxCell>
        <mxCell id="Jp11gVg7JKC-Gpw7KqHW-380" value="" style="verticalLabelPosition=bottom;shadow=0;dashed=0;align=center;html=1;verticalAlign=top;shape=mxgraph.electrical.logic_gates.inverter_2" vertex="1" parent="1">
          <mxGeometry x="460" y="195" width="20" height="10" as="geometry" />
        </mxCell>
        <mxCell id="Jp11gVg7JKC-Gpw7KqHW-388" value="" style="endArrow=none;html=1;rounded=0;" edge="1" parent="1" target="Jp11gVg7JKC-Gpw7KqHW-379">
          <mxGeometry width="50" height="50" relative="1" as="geometry">
            <mxPoint x="430" y="220" as="sourcePoint" />
            <mxPoint x="480" y="220" as="targetPoint" />
          </mxGeometry>
        </mxCell>
        <mxCell id="Jp11gVg7JKC-Gpw7KqHW-379" value="" style="verticalLabelPosition=bottom;shadow=0;dashed=0;align=center;html=1;verticalAlign=top;shape=mxgraph.electrical.logic_gates.inverter_2" vertex="1" parent="1">
          <mxGeometry x="460" y="215" width="20" height="10" as="geometry" />
        </mxCell>
        <mxCell id="Jp11gVg7JKC-Gpw7KqHW-390" value="" style="endArrow=none;html=1;rounded=0;entryX=0;entryY=0.5;entryDx=0;entryDy=0;entryPerimeter=0;" edge="1" parent="1" target="Jp11gVg7JKC-Gpw7KqHW-389">
          <mxGeometry width="50" height="50" relative="1" as="geometry">
            <mxPoint x="400" y="241" as="sourcePoint" />
            <mxPoint x="460" y="239" as="targetPoint" />
          </mxGeometry>
        </mxCell>
        <mxCell id="Jp11gVg7JKC-Gpw7KqHW-389" value="" style="verticalLabelPosition=bottom;shadow=0;dashed=0;align=center;html=1;verticalAlign=top;shape=mxgraph.electrical.logic_gates.inverter_2" vertex="1" parent="1">
          <mxGeometry x="460" y="236" width="20" height="10" as="geometry" />
        </mxCell>
        <mxCell id="Jp11gVg7JKC-Gpw7KqHW-393" value="" style="endArrow=none;html=1;rounded=0;" edge="1" parent="1" target="Jp11gVg7JKC-Gpw7KqHW-392">
          <mxGeometry width="50" height="50" relative="1" as="geometry">
            <mxPoint x="410" y="325" as="sourcePoint" />
            <mxPoint x="480" y="325" as="targetPoint" />
          </mxGeometry>
        </mxCell>
        <mxCell id="Jp11gVg7JKC-Gpw7KqHW-392" value="" style="verticalLabelPosition=bottom;shadow=0;dashed=0;align=center;html=1;verticalAlign=top;shape=mxgraph.electrical.logic_gates.inverter_2" vertex="1" parent="1">
          <mxGeometry x="459" y="320" width="20" height="10" as="geometry" />
        </mxCell>
        <mxCell id="Jp11gVg7JKC-Gpw7KqHW-394" value="" style="endArrow=none;html=1;rounded=0;" edge="1" parent="1" target="Jp11gVg7JKC-Gpw7KqHW-391">
          <mxGeometry width="50" height="50" relative="1" as="geometry">
            <mxPoint x="420" y="334.82" as="sourcePoint" />
            <mxPoint x="480" y="334.82" as="targetPoint" />
          </mxGeometry>
        </mxCell>
        <mxCell id="Jp11gVg7JKC-Gpw7KqHW-391" value="" style="verticalLabelPosition=bottom;shadow=0;dashed=0;align=center;html=1;verticalAlign=top;shape=mxgraph.electrical.logic_gates.inverter_2" vertex="1" parent="1">
          <mxGeometry x="459" y="330" width="20" height="10" as="geometry" />
        </mxCell>
        <mxCell id="Jp11gVg7JKC-Gpw7KqHW-396" value="" style="endArrow=none;html=1;rounded=0;entryX=0;entryY=0.5;entryDx=0;entryDy=0;entryPerimeter=0;" edge="1" parent="1" target="Jp11gVg7JKC-Gpw7KqHW-395">
          <mxGeometry width="50" height="50" relative="1" as="geometry">
            <mxPoint x="400" y="390" as="sourcePoint" />
            <mxPoint x="480" y="390" as="targetPoint" />
          </mxGeometry>
        </mxCell>
        <mxCell id="Jp11gVg7JKC-Gpw7KqHW-395" value="" style="verticalLabelPosition=bottom;shadow=0;dashed=0;align=center;html=1;verticalAlign=top;shape=mxgraph.electrical.logic_gates.inverter_2" vertex="1" parent="1">
          <mxGeometry x="460" y="385" width="20" height="10" as="geometry" />
        </mxCell>
        <mxCell id="Jp11gVg7JKC-Gpw7KqHW-398" value="" style="endArrow=none;html=1;rounded=0;" edge="1" parent="1" target="Jp11gVg7JKC-Gpw7KqHW-397">
          <mxGeometry width="50" height="50" relative="1" as="geometry">
            <mxPoint x="420" y="409.82" as="sourcePoint" />
            <mxPoint x="480" y="409.82" as="targetPoint" />
          </mxGeometry>
        </mxCell>
        <mxCell id="Jp11gVg7JKC-Gpw7KqHW-397" value="" style="verticalLabelPosition=bottom;shadow=0;dashed=0;align=center;html=1;verticalAlign=top;shape=mxgraph.electrical.logic_gates.inverter_2" vertex="1" parent="1">
          <mxGeometry x="460" y="405" width="20" height="10" as="geometry" />
        </mxCell>
        <mxCell id="Jp11gVg7JKC-Gpw7KqHW-400" value="" style="endArrow=none;html=1;rounded=0;" edge="1" parent="1">
          <mxGeometry width="50" height="50" relative="1" as="geometry">
            <mxPoint x="400" y="441" as="sourcePoint" />
            <mxPoint x="459" y="441" as="targetPoint" />
          </mxGeometry>
        </mxCell>
        <mxCell id="Jp11gVg7JKC-Gpw7KqHW-399" value="" style="verticalLabelPosition=bottom;shadow=0;dashed=0;align=center;html=1;verticalAlign=top;shape=mxgraph.electrical.logic_gates.inverter_2" vertex="1" parent="1">
          <mxGeometry x="459" y="436" width="20" height="10" as="geometry" />
        </mxCell>
        <mxCell id="Jp11gVg7JKC-Gpw7KqHW-402" value="" style="endArrow=none;html=1;rounded=0;" edge="1" parent="1" target="Jp11gVg7JKC-Gpw7KqHW-401">
          <mxGeometry width="50" height="50" relative="1" as="geometry">
            <mxPoint x="410" y="450" as="sourcePoint" />
            <mxPoint x="480" y="450" as="targetPoint" />
          </mxGeometry>
        </mxCell>
        <mxCell id="Jp11gVg7JKC-Gpw7KqHW-401" value="" style="verticalLabelPosition=bottom;shadow=0;dashed=0;align=center;html=1;verticalAlign=top;shape=mxgraph.electrical.logic_gates.inverter_2" vertex="1" parent="1">
          <mxGeometry x="459" y="445" width="20" height="10" as="geometry" />
        </mxCell>
        <mxCell id="Jp11gVg7JKC-Gpw7KqHW-405" value="" style="endArrow=none;html=1;rounded=0;entryX=0;entryY=0.5;entryDx=0;entryDy=0;entryPerimeter=0;" edge="1" parent="1" target="Jp11gVg7JKC-Gpw7KqHW-404">
          <mxGeometry width="50" height="50" relative="1" as="geometry">
            <mxPoint x="400" y="490" as="sourcePoint" />
            <mxPoint x="480" y="490" as="targetPoint" />
          </mxGeometry>
        </mxCell>
        <mxCell id="Jp11gVg7JKC-Gpw7KqHW-404" value="" style="verticalLabelPosition=bottom;shadow=0;dashed=0;align=center;html=1;verticalAlign=top;shape=mxgraph.electrical.logic_gates.inverter_2" vertex="1" parent="1">
          <mxGeometry x="460" y="485" width="20" height="10" as="geometry" />
        </mxCell>
        <mxCell id="Jp11gVg7JKC-Gpw7KqHW-408" value="" style="endArrow=none;html=1;rounded=0;" edge="1" parent="1" target="Jp11gVg7JKC-Gpw7KqHW-403">
          <mxGeometry width="50" height="50" relative="1" as="geometry">
            <mxPoint x="410" y="500" as="sourcePoint" />
            <mxPoint x="480" y="500" as="targetPoint" />
          </mxGeometry>
        </mxCell>
        <mxCell id="Jp11gVg7JKC-Gpw7KqHW-403" value="" style="verticalLabelPosition=bottom;shadow=0;dashed=0;align=center;html=1;verticalAlign=top;shape=mxgraph.electrical.logic_gates.inverter_2" vertex="1" parent="1">
          <mxGeometry x="460" y="495" width="20" height="10" as="geometry" />
        </mxCell>
        <mxCell id="Jp11gVg7JKC-Gpw7KqHW-409" value="" style="verticalLabelPosition=bottom;shadow=0;dashed=0;align=center;html=1;verticalAlign=top;shape=mxgraph.electrical.logic_gates.inverter_2" vertex="1" parent="1">
          <mxGeometry x="460" y="535" width="20" height="10" as="geometry" />
        </mxCell>
        <mxCell id="Jp11gVg7JKC-Gpw7KqHW-411" value="" style="endArrow=none;html=1;rounded=0;" edge="1" parent="1" target="Jp11gVg7JKC-Gpw7KqHW-410">
          <mxGeometry width="50" height="50" relative="1" as="geometry">
            <mxPoint x="420" y="609.8199999999999" as="sourcePoint" />
            <mxPoint x="480" y="609.8199999999999" as="targetPoint" />
          </mxGeometry>
        </mxCell>
        <mxCell id="Jp11gVg7JKC-Gpw7KqHW-410" value="" style="verticalLabelPosition=bottom;shadow=0;dashed=0;align=center;html=1;verticalAlign=top;shape=mxgraph.electrical.logic_gates.inverter_2" vertex="1" parent="1">
          <mxGeometry x="460" y="605" width="20" height="10" as="geometry" />
        </mxCell>
        <mxCell id="Jp11gVg7JKC-Gpw7KqHW-415" value="" style="endArrow=none;html=1;rounded=0;entryX=0;entryY=0.5;entryDx=0;entryDy=0;entryPerimeter=0;" edge="1" parent="1" target="Jp11gVg7JKC-Gpw7KqHW-414">
          <mxGeometry width="50" height="50" relative="1" as="geometry">
            <mxPoint x="680" y="241" as="sourcePoint" />
            <mxPoint x="760" y="240" as="targetPoint" />
          </mxGeometry>
        </mxCell>
        <mxCell id="Jp11gVg7JKC-Gpw7KqHW-414" value="" style="verticalLabelPosition=bottom;shadow=0;dashed=0;align=center;html=1;verticalAlign=top;shape=mxgraph.electrical.logic_gates.inverter_2" vertex="1" parent="1">
          <mxGeometry x="740" y="236" width="20" height="10" as="geometry" />
        </mxCell>
        <mxCell id="Jp11gVg7JKC-Gpw7KqHW-416" value="" style="endArrow=none;html=1;rounded=0;" edge="1" parent="1" target="Jp11gVg7JKC-Gpw7KqHW-413">
          <mxGeometry width="50" height="50" relative="1" as="geometry">
            <mxPoint x="690" y="250" as="sourcePoint" />
            <mxPoint x="760" y="250" as="targetPoint" />
          </mxGeometry>
        </mxCell>
        <mxCell id="Jp11gVg7JKC-Gpw7KqHW-413" value="" style="verticalLabelPosition=bottom;shadow=0;dashed=0;align=center;html=1;verticalAlign=top;shape=mxgraph.electrical.logic_gates.inverter_2" vertex="1" parent="1">
          <mxGeometry x="740" y="245" width="20" height="10" as="geometry" />
        </mxCell>
        <mxCell id="Jp11gVg7JKC-Gpw7KqHW-417" value="" style="endArrow=none;html=1;rounded=0;" edge="1" parent="1" target="Jp11gVg7JKC-Gpw7KqHW-412">
          <mxGeometry width="50" height="50" relative="1" as="geometry">
            <mxPoint x="700" y="260" as="sourcePoint" />
            <mxPoint x="760" y="260" as="targetPoint" />
          </mxGeometry>
        </mxCell>
        <mxCell id="Jp11gVg7JKC-Gpw7KqHW-412" value="" style="verticalLabelPosition=bottom;shadow=0;dashed=0;align=center;html=1;verticalAlign=top;shape=mxgraph.electrical.logic_gates.inverter_2" vertex="1" parent="1">
          <mxGeometry x="740" y="255" width="20" height="10" as="geometry" />
        </mxCell>
        <mxCell id="Jp11gVg7JKC-Gpw7KqHW-420" value="" style="endArrow=none;html=1;rounded=0;" edge="1" parent="1" target="Jp11gVg7JKC-Gpw7KqHW-419">
          <mxGeometry width="50" height="50" relative="1" as="geometry">
            <mxPoint x="700" y="334.81999999999994" as="sourcePoint" />
            <mxPoint x="760" y="334.81999999999994" as="targetPoint" />
          </mxGeometry>
        </mxCell>
        <mxCell id="Jp11gVg7JKC-Gpw7KqHW-419" value="" style="verticalLabelPosition=bottom;shadow=0;dashed=0;align=center;html=1;verticalAlign=top;shape=mxgraph.electrical.logic_gates.inverter_2" vertex="1" parent="1">
          <mxGeometry x="740" y="330" width="20" height="10" as="geometry" />
        </mxCell>
        <mxCell id="Jp11gVg7JKC-Gpw7KqHW-421" value="" style="endArrow=none;html=1;rounded=0;" edge="1" parent="1" target="Jp11gVg7JKC-Gpw7KqHW-418">
          <mxGeometry width="50" height="50" relative="1" as="geometry">
            <mxPoint x="710" y="345" as="sourcePoint" />
            <mxPoint x="760" y="345" as="targetPoint" />
          </mxGeometry>
        </mxCell>
        <mxCell id="Jp11gVg7JKC-Gpw7KqHW-418" value="" style="verticalLabelPosition=bottom;shadow=0;dashed=0;align=center;html=1;verticalAlign=top;shape=mxgraph.electrical.logic_gates.inverter_2" vertex="1" parent="1">
          <mxGeometry x="740" y="340" width="20" height="10" as="geometry" />
        </mxCell>
        <mxCell id="Jp11gVg7JKC-Gpw7KqHW-422" value="" style="verticalLabelPosition=bottom;shadow=0;dashed=0;align=center;html=1;verticalAlign=top;shape=mxgraph.electrical.logic_gates.inverter_2" vertex="1" parent="1">
          <mxGeometry x="740" y="385" width="20" height="10" as="geometry" />
        </mxCell>
        <mxCell id="Jp11gVg7JKC-Gpw7KqHW-513" style="edgeStyle=orthogonalEdgeStyle;rounded=0;orthogonalLoop=1;jettySize=auto;html=1;exitX=0.5;exitY=1;exitDx=0;exitDy=0;" edge="1" parent="1" source="Jp11gVg7JKC-Gpw7KqHW-423">
          <mxGeometry relative="1" as="geometry">
            <mxPoint x="145.99999999999977" y="1086.142857142857" as="targetPoint" />
          </mxGeometry>
        </mxCell>
        <mxCell id="Jp11gVg7JKC-Gpw7KqHW-423" value="" style="shape=offPageConnector;whiteSpace=wrap;html=1;direction=north;" vertex="1" parent="1">
          <mxGeometry x="59" y="1076" width="40" height="20" as="geometry" />
        </mxCell>
        <mxCell id="Jp11gVg7JKC-Gpw7KqHW-512" style="edgeStyle=orthogonalEdgeStyle;rounded=0;orthogonalLoop=1;jettySize=auto;html=1;" edge="1" parent="1" source="Jp11gVg7JKC-Gpw7KqHW-424">
          <mxGeometry relative="1" as="geometry">
            <mxPoint x="134" y="1046" as="targetPoint" />
          </mxGeometry>
        </mxCell>
        <mxCell id="Jp11gVg7JKC-Gpw7KqHW-424" value="" style="shape=offPageConnector;whiteSpace=wrap;html=1;direction=north;" vertex="1" parent="1">
          <mxGeometry x="59" y="1036" width="40" height="20" as="geometry" />
        </mxCell>
        <mxCell id="Jp11gVg7JKC-Gpw7KqHW-510" style="edgeStyle=orthogonalEdgeStyle;rounded=0;orthogonalLoop=1;jettySize=auto;html=1;exitX=0.5;exitY=1;exitDx=0;exitDy=0;" edge="1" parent="1" source="Jp11gVg7JKC-Gpw7KqHW-425">
          <mxGeometry relative="1" as="geometry">
            <mxPoint x="123" y="1007" as="targetPoint" />
          </mxGeometry>
        </mxCell>
        <mxCell id="Jp11gVg7JKC-Gpw7KqHW-425" value="" style="shape=offPageConnector;whiteSpace=wrap;html=1;direction=north;" vertex="1" parent="1">
          <mxGeometry x="59" y="996" width="40" height="20" as="geometry" />
        </mxCell>
        <mxCell id="Jp11gVg7JKC-Gpw7KqHW-426" value="sel[2]" style="text;html=1;align=center;verticalAlign=middle;whiteSpace=wrap;rounded=0;" vertex="1" parent="1">
          <mxGeometry x="-1" y="996" width="60" height="20" as="geometry" />
        </mxCell>
        <mxCell id="Jp11gVg7JKC-Gpw7KqHW-427" value="sel[1]" style="text;html=1;align=center;verticalAlign=middle;whiteSpace=wrap;rounded=0;" vertex="1" parent="1">
          <mxGeometry x="-1" y="1036" width="60" height="20" as="geometry" />
        </mxCell>
        <mxCell id="Jp11gVg7JKC-Gpw7KqHW-428" value="sel[0]" style="text;html=1;align=center;verticalAlign=middle;whiteSpace=wrap;rounded=0;" vertex="1" parent="1">
          <mxGeometry x="-1" y="1076" width="60" height="20" as="geometry" />
        </mxCell>
        <mxCell id="Jp11gVg7JKC-Gpw7KqHW-429" value="" style="endArrow=none;html=1;rounded=0;" edge="1" parent="1">
          <mxGeometry width="50" height="50" relative="1" as="geometry">
            <mxPoint x="124" y="1216" as="sourcePoint" />
            <mxPoint x="124" y="839" as="targetPoint" />
          </mxGeometry>
        </mxCell>
        <mxCell id="Jp11gVg7JKC-Gpw7KqHW-430" value="" style="endArrow=none;html=1;rounded=0;" edge="1" parent="1">
          <mxGeometry width="50" height="50" relative="1" as="geometry">
            <mxPoint x="134" y="1229" as="sourcePoint" />
            <mxPoint x="134" y="851" as="targetPoint" />
          </mxGeometry>
        </mxCell>
        <mxCell id="Jp11gVg7JKC-Gpw7KqHW-431" value="" style="endArrow=none;html=1;rounded=0;" edge="1" parent="1">
          <mxGeometry width="50" height="50" relative="1" as="geometry">
            <mxPoint x="146" y="1241" as="sourcePoint" />
            <mxPoint x="146" y="864" as="targetPoint" />
          </mxGeometry>
        </mxCell>
        <mxCell id="Jp11gVg7JKC-Gpw7KqHW-477" style="edgeStyle=orthogonalEdgeStyle;rounded=0;orthogonalLoop=1;jettySize=auto;html=1;exitX=1;exitY=0.5;exitDx=0;exitDy=0;exitPerimeter=0;entryX=0.5;entryY=1;entryDx=0;entryDy=0;" edge="1" parent="1" source="Jp11gVg7JKC-Gpw7KqHW-433" target="Jp11gVg7JKC-Gpw7KqHW-469">
          <mxGeometry relative="1" as="geometry" />
        </mxCell>
        <mxCell id="Jp11gVg7JKC-Gpw7KqHW-433" value="" style="shape=xor;whiteSpace=wrap;html=1;" vertex="1" parent="1">
          <mxGeometry x="171" y="995" width="40" height="40" as="geometry" />
        </mxCell>
        <mxCell id="Jp11gVg7JKC-Gpw7KqHW-474" style="edgeStyle=orthogonalEdgeStyle;rounded=0;orthogonalLoop=1;jettySize=auto;html=1;exitX=1;exitY=0.5;exitDx=0;exitDy=0;exitPerimeter=0;entryX=0.5;entryY=1;entryDx=0;entryDy=0;" edge="1" parent="1" source="Jp11gVg7JKC-Gpw7KqHW-434" target="Jp11gVg7JKC-Gpw7KqHW-466">
          <mxGeometry relative="1" as="geometry" />
        </mxCell>
        <mxCell id="Jp11gVg7JKC-Gpw7KqHW-434" value="" style="shape=xor;whiteSpace=wrap;html=1;" vertex="1" parent="1">
          <mxGeometry x="171" y="833" width="40" height="40" as="geometry" />
        </mxCell>
        <mxCell id="Jp11gVg7JKC-Gpw7KqHW-475" style="edgeStyle=orthogonalEdgeStyle;rounded=0;orthogonalLoop=1;jettySize=auto;html=1;exitX=1;exitY=0.5;exitDx=0;exitDy=0;exitPerimeter=0;entryX=0.5;entryY=1;entryDx=0;entryDy=0;" edge="1" parent="1" source="Jp11gVg7JKC-Gpw7KqHW-435" target="Jp11gVg7JKC-Gpw7KqHW-467">
          <mxGeometry relative="1" as="geometry" />
        </mxCell>
        <mxCell id="Jp11gVg7JKC-Gpw7KqHW-435" value="" style="shape=xor;whiteSpace=wrap;html=1;" vertex="1" parent="1">
          <mxGeometry x="171" y="887" width="40" height="40" as="geometry" />
        </mxCell>
        <mxCell id="Jp11gVg7JKC-Gpw7KqHW-476" style="edgeStyle=orthogonalEdgeStyle;rounded=0;orthogonalLoop=1;jettySize=auto;html=1;exitX=1;exitY=0.5;exitDx=0;exitDy=0;exitPerimeter=0;entryX=0.5;entryY=1;entryDx=0;entryDy=0;" edge="1" parent="1" source="Jp11gVg7JKC-Gpw7KqHW-436" target="Jp11gVg7JKC-Gpw7KqHW-468">
          <mxGeometry relative="1" as="geometry" />
        </mxCell>
        <mxCell id="Jp11gVg7JKC-Gpw7KqHW-436" value="" style="shape=xor;whiteSpace=wrap;html=1;" vertex="1" parent="1">
          <mxGeometry x="171" y="941" width="40" height="40" as="geometry" />
        </mxCell>
        <mxCell id="Jp11gVg7JKC-Gpw7KqHW-481" style="edgeStyle=orthogonalEdgeStyle;rounded=0;orthogonalLoop=1;jettySize=auto;html=1;exitX=1;exitY=0.5;exitDx=0;exitDy=0;exitPerimeter=0;entryX=0.5;entryY=1;entryDx=0;entryDy=0;" edge="1" parent="1" source="Jp11gVg7JKC-Gpw7KqHW-437" target="Jp11gVg7JKC-Gpw7KqHW-473">
          <mxGeometry relative="1" as="geometry" />
        </mxCell>
        <mxCell id="Jp11gVg7JKC-Gpw7KqHW-437" value="" style="shape=xor;whiteSpace=wrap;html=1;" vertex="1" parent="1">
          <mxGeometry x="171" y="1211" width="40" height="40" as="geometry" />
        </mxCell>
        <mxCell id="Jp11gVg7JKC-Gpw7KqHW-478" style="edgeStyle=orthogonalEdgeStyle;rounded=0;orthogonalLoop=1;jettySize=auto;html=1;exitX=1;exitY=0.5;exitDx=0;exitDy=0;exitPerimeter=0;entryX=0.5;entryY=1;entryDx=0;entryDy=0;" edge="1" parent="1" source="Jp11gVg7JKC-Gpw7KqHW-438" target="Jp11gVg7JKC-Gpw7KqHW-470">
          <mxGeometry relative="1" as="geometry" />
        </mxCell>
        <mxCell id="Jp11gVg7JKC-Gpw7KqHW-438" value="" style="shape=xor;whiteSpace=wrap;html=1;" vertex="1" parent="1">
          <mxGeometry x="171" y="1049" width="40" height="40" as="geometry" />
        </mxCell>
        <mxCell id="Jp11gVg7JKC-Gpw7KqHW-479" style="edgeStyle=orthogonalEdgeStyle;rounded=0;orthogonalLoop=1;jettySize=auto;html=1;exitX=1;exitY=0.5;exitDx=0;exitDy=0;exitPerimeter=0;entryX=0.5;entryY=1;entryDx=0;entryDy=0;" edge="1" parent="1" source="Jp11gVg7JKC-Gpw7KqHW-439" target="Jp11gVg7JKC-Gpw7KqHW-471">
          <mxGeometry relative="1" as="geometry" />
        </mxCell>
        <mxCell id="Jp11gVg7JKC-Gpw7KqHW-439" value="" style="shape=xor;whiteSpace=wrap;html=1;" vertex="1" parent="1">
          <mxGeometry x="171" y="1103" width="40" height="40" as="geometry" />
        </mxCell>
        <mxCell id="Jp11gVg7JKC-Gpw7KqHW-480" style="edgeStyle=orthogonalEdgeStyle;rounded=0;orthogonalLoop=1;jettySize=auto;html=1;exitX=1;exitY=0.5;exitDx=0;exitDy=0;exitPerimeter=0;entryX=0.5;entryY=1;entryDx=0;entryDy=0;" edge="1" parent="1" source="Jp11gVg7JKC-Gpw7KqHW-440" target="Jp11gVg7JKC-Gpw7KqHW-472">
          <mxGeometry relative="1" as="geometry" />
        </mxCell>
        <mxCell id="Jp11gVg7JKC-Gpw7KqHW-440" value="" style="shape=xor;whiteSpace=wrap;html=1;" vertex="1" parent="1">
          <mxGeometry x="171" y="1157" width="40" height="40" as="geometry" />
        </mxCell>
        <mxCell id="Jp11gVg7JKC-Gpw7KqHW-441" value="" style="endArrow=none;html=1;rounded=0;entryX=0.175;entryY=0.75;entryDx=0;entryDy=0;entryPerimeter=0;" edge="1" parent="1" source="Jp11gVg7JKC-Gpw7KqHW-505" target="Jp11gVg7JKC-Gpw7KqHW-437">
          <mxGeometry width="50" height="50" relative="1" as="geometry">
            <mxPoint x="146" y="1241" as="sourcePoint" />
            <mxPoint x="196" y="1197" as="targetPoint" />
          </mxGeometry>
        </mxCell>
        <mxCell id="Jp11gVg7JKC-Gpw7KqHW-442" value="" style="endArrow=none;html=1;rounded=0;entryX=0.234;entryY=0.432;entryDx=0;entryDy=0;entryPerimeter=0;" edge="1" parent="1" source="Jp11gVg7JKC-Gpw7KqHW-506" target="Jp11gVg7JKC-Gpw7KqHW-437">
          <mxGeometry width="50" height="50" relative="1" as="geometry">
            <mxPoint x="134" y="1228" as="sourcePoint" />
            <mxPoint x="152" y="1221" as="targetPoint" />
          </mxGeometry>
        </mxCell>
        <mxCell id="Jp11gVg7JKC-Gpw7KqHW-443" value="" style="endArrow=none;html=1;rounded=0;entryX=0.105;entryY=0.128;entryDx=0;entryDy=0;entryPerimeter=0;" edge="1" parent="1" target="Jp11gVg7JKC-Gpw7KqHW-437">
          <mxGeometry width="50" height="50" relative="1" as="geometry">
            <mxPoint x="124" y="1216" as="sourcePoint" />
            <mxPoint x="152" y="1221" as="targetPoint" />
          </mxGeometry>
        </mxCell>
        <mxCell id="Jp11gVg7JKC-Gpw7KqHW-444" value="" style="endArrow=none;html=1;rounded=0;entryX=0.175;entryY=0.75;entryDx=0;entryDy=0;entryPerimeter=0;" edge="1" parent="1">
          <mxGeometry width="50" height="50" relative="1" as="geometry">
            <mxPoint x="146" y="1188" as="sourcePoint" />
            <mxPoint x="178" y="1188" as="targetPoint" />
          </mxGeometry>
        </mxCell>
        <mxCell id="Jp11gVg7JKC-Gpw7KqHW-445" value="" style="endArrow=none;html=1;rounded=0;entryX=0.234;entryY=0.432;entryDx=0;entryDy=0;entryPerimeter=0;" edge="1" parent="1" source="Jp11gVg7JKC-Gpw7KqHW-503">
          <mxGeometry width="50" height="50" relative="1" as="geometry">
            <mxPoint x="134" y="1175" as="sourcePoint" />
            <mxPoint x="180" y="1175" as="targetPoint" />
          </mxGeometry>
        </mxCell>
        <mxCell id="Jp11gVg7JKC-Gpw7KqHW-446" value="" style="endArrow=none;html=1;rounded=0;entryX=0.105;entryY=0.128;entryDx=0;entryDy=0;entryPerimeter=0;" edge="1" parent="1" source="Jp11gVg7JKC-Gpw7KqHW-497">
          <mxGeometry width="50" height="50" relative="1" as="geometry">
            <mxPoint x="124" y="1163" as="sourcePoint" />
            <mxPoint x="175" y="1163" as="targetPoint" />
          </mxGeometry>
        </mxCell>
        <mxCell id="Jp11gVg7JKC-Gpw7KqHW-447" value="" style="endArrow=none;html=1;rounded=0;entryX=0.175;entryY=0.75;entryDx=0;entryDy=0;entryPerimeter=0;" edge="1" parent="1" source="Jp11gVg7JKC-Gpw7KqHW-498">
          <mxGeometry width="50" height="50" relative="1" as="geometry">
            <mxPoint x="146" y="1133" as="sourcePoint" />
            <mxPoint x="178" y="1133" as="targetPoint" />
          </mxGeometry>
        </mxCell>
        <mxCell id="Jp11gVg7JKC-Gpw7KqHW-448" value="" style="endArrow=none;html=1;rounded=0;entryX=0.234;entryY=0.432;entryDx=0;entryDy=0;entryPerimeter=0;" edge="1" parent="1">
          <mxGeometry width="50" height="50" relative="1" as="geometry">
            <mxPoint x="134" y="1120" as="sourcePoint" />
            <mxPoint x="180" y="1120" as="targetPoint" />
          </mxGeometry>
        </mxCell>
        <mxCell id="Jp11gVg7JKC-Gpw7KqHW-449" value="" style="endArrow=none;html=1;rounded=0;entryX=0.105;entryY=0.128;entryDx=0;entryDy=0;entryPerimeter=0;" edge="1" parent="1">
          <mxGeometry width="50" height="50" relative="1" as="geometry">
            <mxPoint x="124" y="1108" as="sourcePoint" />
            <mxPoint x="175" y="1108" as="targetPoint" />
          </mxGeometry>
        </mxCell>
        <mxCell id="Jp11gVg7JKC-Gpw7KqHW-450" value="" style="endArrow=none;html=1;rounded=0;entryX=0.175;entryY=0.75;entryDx=0;entryDy=0;entryPerimeter=0;" edge="1" parent="1">
          <mxGeometry width="50" height="50" relative="1" as="geometry">
            <mxPoint x="147" y="1080" as="sourcePoint" />
            <mxPoint x="179" y="1080" as="targetPoint" />
          </mxGeometry>
        </mxCell>
        <mxCell id="Jp11gVg7JKC-Gpw7KqHW-451" value="" style="endArrow=none;html=1;rounded=0;entryX=0.234;entryY=0.432;entryDx=0;entryDy=0;entryPerimeter=0;" edge="1" parent="1">
          <mxGeometry width="50" height="50" relative="1" as="geometry">
            <mxPoint x="135" y="1067" as="sourcePoint" />
            <mxPoint x="181" y="1067" as="targetPoint" />
          </mxGeometry>
        </mxCell>
        <mxCell id="Jp11gVg7JKC-Gpw7KqHW-452" value="" style="endArrow=none;html=1;rounded=0;entryX=0.105;entryY=0.128;entryDx=0;entryDy=0;entryPerimeter=0;" edge="1" parent="1" source="Jp11gVg7JKC-Gpw7KqHW-495">
          <mxGeometry width="50" height="50" relative="1" as="geometry">
            <mxPoint x="125" y="1055" as="sourcePoint" />
            <mxPoint x="176" y="1055" as="targetPoint" />
          </mxGeometry>
        </mxCell>
        <mxCell id="Jp11gVg7JKC-Gpw7KqHW-453" value="" style="endArrow=none;html=1;rounded=0;entryX=0.175;entryY=0.75;entryDx=0;entryDy=0;entryPerimeter=0;" edge="1" parent="1">
          <mxGeometry width="50" height="50" relative="1" as="geometry">
            <mxPoint x="146" y="864" as="sourcePoint" />
            <mxPoint x="178" y="864" as="targetPoint" />
          </mxGeometry>
        </mxCell>
        <mxCell id="Jp11gVg7JKC-Gpw7KqHW-454" value="" style="endArrow=none;html=1;rounded=0;entryX=0.234;entryY=0.432;entryDx=0;entryDy=0;entryPerimeter=0;" edge="1" parent="1">
          <mxGeometry width="50" height="50" relative="1" as="geometry">
            <mxPoint x="134" y="851" as="sourcePoint" />
            <mxPoint x="180" y="851" as="targetPoint" />
          </mxGeometry>
        </mxCell>
        <mxCell id="Jp11gVg7JKC-Gpw7KqHW-455" value="" style="endArrow=none;html=1;rounded=0;entryX=0.105;entryY=0.128;entryDx=0;entryDy=0;entryPerimeter=0;" edge="1" parent="1">
          <mxGeometry width="50" height="50" relative="1" as="geometry">
            <mxPoint x="124" y="839" as="sourcePoint" />
            <mxPoint x="175" y="839" as="targetPoint" />
          </mxGeometry>
        </mxCell>
        <mxCell id="Jp11gVg7JKC-Gpw7KqHW-456" value="" style="endArrow=none;html=1;rounded=0;entryX=0.175;entryY=0.75;entryDx=0;entryDy=0;entryPerimeter=0;" edge="1" parent="1" source="Jp11gVg7JKC-Gpw7KqHW-493">
          <mxGeometry width="50" height="50" relative="1" as="geometry">
            <mxPoint x="146" y="1026" as="sourcePoint" />
            <mxPoint x="178" y="1026" as="targetPoint" />
          </mxGeometry>
        </mxCell>
        <mxCell id="Jp11gVg7JKC-Gpw7KqHW-457" value="" style="endArrow=none;html=1;rounded=0;entryX=0.234;entryY=0.432;entryDx=0;entryDy=0;entryPerimeter=0;" edge="1" parent="1" source="Jp11gVg7JKC-Gpw7KqHW-491">
          <mxGeometry width="50" height="50" relative="1" as="geometry">
            <mxPoint x="134" y="1013" as="sourcePoint" />
            <mxPoint x="180" y="1013" as="targetPoint" />
          </mxGeometry>
        </mxCell>
        <mxCell id="Jp11gVg7JKC-Gpw7KqHW-458" value="" style="endArrow=none;html=1;rounded=0;entryX=0.105;entryY=0.128;entryDx=0;entryDy=0;entryPerimeter=0;" edge="1" parent="1">
          <mxGeometry width="50" height="50" relative="1" as="geometry">
            <mxPoint x="124" y="1001" as="sourcePoint" />
            <mxPoint x="175" y="1001" as="targetPoint" />
          </mxGeometry>
        </mxCell>
        <mxCell id="Jp11gVg7JKC-Gpw7KqHW-459" value="" style="endArrow=none;html=1;rounded=0;entryX=0.175;entryY=0.75;entryDx=0;entryDy=0;entryPerimeter=0;" edge="1" parent="1">
          <mxGeometry width="50" height="50" relative="1" as="geometry">
            <mxPoint x="146" y="972" as="sourcePoint" />
            <mxPoint x="178" y="972" as="targetPoint" />
          </mxGeometry>
        </mxCell>
        <mxCell id="Jp11gVg7JKC-Gpw7KqHW-460" value="" style="endArrow=none;html=1;rounded=0;entryX=0.234;entryY=0.432;entryDx=0;entryDy=0;entryPerimeter=0;" edge="1" parent="1" source="Jp11gVg7JKC-Gpw7KqHW-465">
          <mxGeometry width="50" height="50" relative="1" as="geometry">
            <mxPoint x="134" y="959" as="sourcePoint" />
            <mxPoint x="180" y="959" as="targetPoint" />
          </mxGeometry>
        </mxCell>
        <mxCell id="Jp11gVg7JKC-Gpw7KqHW-461" value="" style="endArrow=none;html=1;rounded=0;entryX=0.105;entryY=0.128;entryDx=0;entryDy=0;entryPerimeter=0;" edge="1" parent="1">
          <mxGeometry width="50" height="50" relative="1" as="geometry">
            <mxPoint x="124" y="947" as="sourcePoint" />
            <mxPoint x="175" y="947" as="targetPoint" />
          </mxGeometry>
        </mxCell>
        <mxCell id="Jp11gVg7JKC-Gpw7KqHW-462" value="" style="endArrow=none;html=1;rounded=0;entryX=0.175;entryY=0.75;entryDx=0;entryDy=0;entryPerimeter=0;" edge="1" parent="1">
          <mxGeometry width="50" height="50" relative="1" as="geometry">
            <mxPoint x="146" y="917" as="sourcePoint" />
            <mxPoint x="178" y="917" as="targetPoint" />
          </mxGeometry>
        </mxCell>
        <mxCell id="Jp11gVg7JKC-Gpw7KqHW-463" value="" style="endArrow=none;html=1;rounded=0;entryX=0.234;entryY=0.432;entryDx=0;entryDy=0;entryPerimeter=0;" edge="1" parent="1">
          <mxGeometry width="50" height="50" relative="1" as="geometry">
            <mxPoint x="134" y="904" as="sourcePoint" />
            <mxPoint x="180" y="904" as="targetPoint" />
          </mxGeometry>
        </mxCell>
        <mxCell id="Jp11gVg7JKC-Gpw7KqHW-464" value="" style="endArrow=none;html=1;rounded=0;entryX=0.105;entryY=0.128;entryDx=0;entryDy=0;entryPerimeter=0;" edge="1" parent="1">
          <mxGeometry width="50" height="50" relative="1" as="geometry">
            <mxPoint x="124" y="892" as="sourcePoint" />
            <mxPoint x="175" y="892" as="targetPoint" />
          </mxGeometry>
        </mxCell>
        <mxCell id="Jp11gVg7JKC-Gpw7KqHW-466" value="" style="shape=offPageConnector;whiteSpace=wrap;html=1;direction=south;" vertex="1" parent="1">
          <mxGeometry x="268" y="843" width="40" height="20" as="geometry" />
        </mxCell>
        <mxCell id="Jp11gVg7JKC-Gpw7KqHW-467" value="" style="shape=offPageConnector;whiteSpace=wrap;html=1;direction=south;" vertex="1" parent="1">
          <mxGeometry x="271" y="898" width="40" height="20" as="geometry" />
        </mxCell>
        <mxCell id="Jp11gVg7JKC-Gpw7KqHW-468" value="" style="shape=offPageConnector;whiteSpace=wrap;html=1;direction=south;" vertex="1" parent="1">
          <mxGeometry x="269" y="950" width="40" height="20" as="geometry" />
        </mxCell>
        <mxCell id="Jp11gVg7JKC-Gpw7KqHW-469" value="" style="shape=offPageConnector;whiteSpace=wrap;html=1;direction=south;" vertex="1" parent="1">
          <mxGeometry x="268" y="1005" width="40" height="20" as="geometry" />
        </mxCell>
        <mxCell id="Jp11gVg7JKC-Gpw7KqHW-470" value="" style="shape=offPageConnector;whiteSpace=wrap;html=1;direction=south;" vertex="1" parent="1">
          <mxGeometry x="268" y="1059" width="40" height="20" as="geometry" />
        </mxCell>
        <mxCell id="Jp11gVg7JKC-Gpw7KqHW-471" value="" style="shape=offPageConnector;whiteSpace=wrap;html=1;direction=south;" vertex="1" parent="1">
          <mxGeometry x="268" y="1113" width="40" height="20" as="geometry" />
        </mxCell>
        <mxCell id="Jp11gVg7JKC-Gpw7KqHW-472" value="" style="shape=offPageConnector;whiteSpace=wrap;html=1;direction=south;" vertex="1" parent="1">
          <mxGeometry x="268" y="1169" width="40" height="20" as="geometry" />
        </mxCell>
        <mxCell id="Jp11gVg7JKC-Gpw7KqHW-473" value="" style="shape=offPageConnector;whiteSpace=wrap;html=1;direction=south;" vertex="1" parent="1">
          <mxGeometry x="268" y="1221" width="40" height="20" as="geometry" />
        </mxCell>
        <mxCell id="Jp11gVg7JKC-Gpw7KqHW-482" value="anode[0]" style="text;html=1;align=center;verticalAlign=middle;whiteSpace=wrap;rounded=0;" vertex="1" parent="1">
          <mxGeometry x="269" y="817" width="40" height="25" as="geometry" />
        </mxCell>
        <mxCell id="Jp11gVg7JKC-Gpw7KqHW-483" value="anode[6]" style="text;html=1;align=center;verticalAlign=middle;whiteSpace=wrap;rounded=0;" vertex="1" parent="1">
          <mxGeometry x="269" y="1143" width="40" height="25" as="geometry" />
        </mxCell>
        <mxCell id="Jp11gVg7JKC-Gpw7KqHW-484" value="anode[5]" style="text;html=1;align=center;verticalAlign=middle;whiteSpace=wrap;rounded=0;" vertex="1" parent="1">
          <mxGeometry x="270" y="1086" width="40" height="25" as="geometry" />
        </mxCell>
        <mxCell id="Jp11gVg7JKC-Gpw7KqHW-485" value="anode[4]" style="text;html=1;align=center;verticalAlign=middle;whiteSpace=wrap;rounded=0;" vertex="1" parent="1">
          <mxGeometry x="269" y="1034" width="40" height="25" as="geometry" />
        </mxCell>
        <mxCell id="Jp11gVg7JKC-Gpw7KqHW-486" value="anode[3]" style="text;html=1;align=center;verticalAlign=middle;whiteSpace=wrap;rounded=0;" vertex="1" parent="1">
          <mxGeometry x="270" y="979" width="40" height="25" as="geometry" />
        </mxCell>
        <mxCell id="Jp11gVg7JKC-Gpw7KqHW-487" value="anode[2]" style="text;html=1;align=center;verticalAlign=middle;whiteSpace=wrap;rounded=0;" vertex="1" parent="1">
          <mxGeometry x="270" y="926" width="40" height="25" as="geometry" />
        </mxCell>
        <mxCell id="Jp11gVg7JKC-Gpw7KqHW-488" value="anode[1]" style="text;html=1;align=center;verticalAlign=middle;whiteSpace=wrap;rounded=0;" vertex="1" parent="1">
          <mxGeometry x="272" y="872" width="40" height="25" as="geometry" />
        </mxCell>
        <mxCell id="Jp11gVg7JKC-Gpw7KqHW-489" value="anode[7]" style="text;html=1;align=center;verticalAlign=middle;whiteSpace=wrap;rounded=0;" vertex="1" parent="1">
          <mxGeometry x="269" y="1195" width="40" height="25" as="geometry" />
        </mxCell>
        <mxCell id="Jp11gVg7JKC-Gpw7KqHW-490" value="" style="endArrow=none;html=1;rounded=0;entryX=0;entryY=0.5;entryDx=0;entryDy=0;entryPerimeter=0;" edge="1" parent="1" target="Jp11gVg7JKC-Gpw7KqHW-465">
          <mxGeometry width="50" height="50" relative="1" as="geometry">
            <mxPoint x="134" y="959" as="sourcePoint" />
            <mxPoint x="180" y="959" as="targetPoint" />
          </mxGeometry>
        </mxCell>
        <mxCell id="Jp11gVg7JKC-Gpw7KqHW-465" value="" style="verticalLabelPosition=bottom;shadow=0;dashed=0;align=center;html=1;verticalAlign=top;shape=mxgraph.electrical.logic_gates.inverter_2" vertex="1" parent="1">
          <mxGeometry x="161" y="954" width="20" height="10" as="geometry" />
        </mxCell>
        <mxCell id="Jp11gVg7JKC-Gpw7KqHW-492" value="" style="endArrow=none;html=1;rounded=0;entryX=0;entryY=0.5;entryDx=0;entryDy=0;entryPerimeter=0;" edge="1" parent="1" target="Jp11gVg7JKC-Gpw7KqHW-491">
          <mxGeometry width="50" height="50" relative="1" as="geometry">
            <mxPoint x="134" y="1013" as="sourcePoint" />
            <mxPoint x="180" y="1013" as="targetPoint" />
          </mxGeometry>
        </mxCell>
        <mxCell id="Jp11gVg7JKC-Gpw7KqHW-491" value="" style="verticalLabelPosition=bottom;shadow=0;dashed=0;align=center;html=1;verticalAlign=top;shape=mxgraph.electrical.logic_gates.inverter_2" vertex="1" parent="1">
          <mxGeometry x="161" y="1008" width="20" height="10" as="geometry" />
        </mxCell>
        <mxCell id="Jp11gVg7JKC-Gpw7KqHW-494" value="" style="endArrow=none;html=1;rounded=0;entryX=0.101;entryY=0.488;entryDx=0;entryDy=0;entryPerimeter=0;" edge="1" parent="1" target="Jp11gVg7JKC-Gpw7KqHW-493">
          <mxGeometry width="50" height="50" relative="1" as="geometry">
            <mxPoint x="145" y="1027" as="sourcePoint" />
            <mxPoint x="178" y="1026" as="targetPoint" />
          </mxGeometry>
        </mxCell>
        <mxCell id="Jp11gVg7JKC-Gpw7KqHW-493" value="" style="verticalLabelPosition=bottom;shadow=0;dashed=0;align=center;html=1;verticalAlign=top;shape=mxgraph.electrical.logic_gates.inverter_2" vertex="1" parent="1">
          <mxGeometry x="158" y="1022" width="20" height="10" as="geometry" />
        </mxCell>
        <mxCell id="Jp11gVg7JKC-Gpw7KqHW-496" value="" style="endArrow=none;html=1;rounded=0;entryX=0;entryY=0.5;entryDx=0;entryDy=0;entryPerimeter=0;" edge="1" parent="1" target="Jp11gVg7JKC-Gpw7KqHW-495">
          <mxGeometry width="50" height="50" relative="1" as="geometry">
            <mxPoint x="125" y="1055" as="sourcePoint" />
            <mxPoint x="176" y="1055" as="targetPoint" />
          </mxGeometry>
        </mxCell>
        <mxCell id="Jp11gVg7JKC-Gpw7KqHW-495" value="" style="verticalLabelPosition=bottom;shadow=0;dashed=0;align=center;html=1;verticalAlign=top;shape=mxgraph.electrical.logic_gates.inverter_2" vertex="1" parent="1">
          <mxGeometry x="156" y="1050" width="20" height="10" as="geometry" />
        </mxCell>
        <mxCell id="Jp11gVg7JKC-Gpw7KqHW-499" value="" style="verticalLabelPosition=bottom;shadow=0;dashed=0;align=center;html=1;verticalAlign=top;shape=mxgraph.electrical.logic_gates.inverter_2" vertex="1" parent="1">
          <mxGeometry x="155" y="1103" width="20" height="10" as="geometry" />
        </mxCell>
        <mxCell id="Jp11gVg7JKC-Gpw7KqHW-501" value="" style="endArrow=none;html=1;rounded=0;entryX=0;entryY=0.5;entryDx=0;entryDy=0;entryPerimeter=0;" edge="1" parent="1" target="Jp11gVg7JKC-Gpw7KqHW-498">
          <mxGeometry width="50" height="50" relative="1" as="geometry">
            <mxPoint x="146" y="1133" as="sourcePoint" />
            <mxPoint x="178" y="1133" as="targetPoint" />
          </mxGeometry>
        </mxCell>
        <mxCell id="Jp11gVg7JKC-Gpw7KqHW-498" value="" style="verticalLabelPosition=bottom;shadow=0;dashed=0;align=center;html=1;verticalAlign=top;shape=mxgraph.electrical.logic_gates.inverter_2" vertex="1" parent="1">
          <mxGeometry x="158" y="1128" width="20" height="10" as="geometry" />
        </mxCell>
        <mxCell id="Jp11gVg7JKC-Gpw7KqHW-502" value="" style="endArrow=none;html=1;rounded=0;entryX=0;entryY=0.5;entryDx=0;entryDy=0;entryPerimeter=0;" edge="1" parent="1" target="Jp11gVg7JKC-Gpw7KqHW-497">
          <mxGeometry width="50" height="50" relative="1" as="geometry">
            <mxPoint x="124" y="1163" as="sourcePoint" />
            <mxPoint x="175" y="1163" as="targetPoint" />
          </mxGeometry>
        </mxCell>
        <mxCell id="Jp11gVg7JKC-Gpw7KqHW-497" value="" style="verticalLabelPosition=bottom;shadow=0;dashed=0;align=center;html=1;verticalAlign=top;shape=mxgraph.electrical.logic_gates.inverter_2" vertex="1" parent="1">
          <mxGeometry x="155" y="1158" width="20" height="10" as="geometry" />
        </mxCell>
        <mxCell id="Jp11gVg7JKC-Gpw7KqHW-504" value="" style="endArrow=none;html=1;rounded=0;entryX=0;entryY=0.5;entryDx=0;entryDy=0;entryPerimeter=0;" edge="1" parent="1" target="Jp11gVg7JKC-Gpw7KqHW-503">
          <mxGeometry width="50" height="50" relative="1" as="geometry">
            <mxPoint x="134" y="1174" as="sourcePoint" />
            <mxPoint x="180" y="1175" as="targetPoint" />
          </mxGeometry>
        </mxCell>
        <mxCell id="Jp11gVg7JKC-Gpw7KqHW-503" value="" style="verticalLabelPosition=bottom;shadow=0;dashed=0;align=center;html=1;verticalAlign=top;shape=mxgraph.electrical.logic_gates.inverter_2" vertex="1" parent="1">
          <mxGeometry x="160" y="1169" width="20" height="10" as="geometry" />
        </mxCell>
        <mxCell id="Jp11gVg7JKC-Gpw7KqHW-507" value="" style="verticalLabelPosition=bottom;shadow=0;dashed=0;align=center;html=1;verticalAlign=top;shape=mxgraph.electrical.logic_gates.inverter_2" vertex="1" parent="1">
          <mxGeometry x="155" y="1211" width="20" height="10" as="geometry" />
        </mxCell>
        <mxCell id="Jp11gVg7JKC-Gpw7KqHW-508" value="" style="endArrow=none;html=1;rounded=0;entryX=0;entryY=0.5;entryDx=0;entryDy=0;entryPerimeter=0;" edge="1" parent="1" target="Jp11gVg7JKC-Gpw7KqHW-506">
          <mxGeometry width="50" height="50" relative="1" as="geometry">
            <mxPoint x="134" y="1228" as="sourcePoint" />
            <mxPoint x="180" y="1228" as="targetPoint" />
          </mxGeometry>
        </mxCell>
        <mxCell id="Jp11gVg7JKC-Gpw7KqHW-506" value="" style="verticalLabelPosition=bottom;shadow=0;dashed=0;align=center;html=1;verticalAlign=top;shape=mxgraph.electrical.logic_gates.inverter_2" vertex="1" parent="1">
          <mxGeometry x="160" y="1223" width="20" height="10" as="geometry" />
        </mxCell>
        <mxCell id="Jp11gVg7JKC-Gpw7KqHW-509" value="" style="endArrow=none;html=1;rounded=0;entryX=0;entryY=0.5;entryDx=0;entryDy=0;entryPerimeter=0;" edge="1" parent="1" target="Jp11gVg7JKC-Gpw7KqHW-505">
          <mxGeometry width="50" height="50" relative="1" as="geometry">
            <mxPoint x="146" y="1241" as="sourcePoint" />
            <mxPoint x="178" y="1241" as="targetPoint" />
          </mxGeometry>
        </mxCell>
        <mxCell id="Jp11gVg7JKC-Gpw7KqHW-505" value="" style="verticalLabelPosition=bottom;shadow=0;dashed=0;align=center;html=1;verticalAlign=top;shape=mxgraph.electrical.logic_gates.inverter_2" vertex="1" parent="1">
          <mxGeometry x="158" y="1236" width="20" height="10" as="geometry" />
        </mxCell>
      </root>
    </mxGraphModel>
  </diagram>
</mxfile>
